<svg id="Calque_1" data-name="Calque 1" xmlns="http://www.w3.org/2000/svg" xmlns:xlink="http://www.w3.org/1999/xlink" viewBox="0 0 1717 267"><defs><style>.cls-1{fill:url(#Nouvelle_nuance_de_dégradé_5);}.cls-2{fill:#29235c;}</style><linearGradient id="Nouvelle_nuance_de_dégradé_5" x1="-25.03" y1="126.8" x2="318.12" y2="126.8" gradientTransform="translate(48.34 6)" gradientUnits="userSpaceOnUse"><stop offset="0" stop-color="#001aff"/><stop offset="0.63" stop-color="#0f7aff"/><stop offset="1" stop-color="#17aeff"/></linearGradient></defs><title>logo-horizontal</title><path class="cls-1" d="M311.83,88.57a91.22,91.22,0,0,0-176.1,15.64A72.77,72.77,0,1,0,96.15,238H290.22c45,0,76.24-37.82,76.24-76.29A76.21,76.21,0,0,0,311.83,88.57ZM96.15,211.71a46.47,46.47,0,1,1,46.51-46.47A46.54,46.54,0,0,1,96.15,211.71Zm194,0a50.05,50.05,0,0,1-46.2-30.78,64.81,64.81,0,1,1,46.3-69.21,50,50,0,0,1-.1,100Z"/><path class="cls-2" d="M580.83,67.77a70.16,70.16,0,0,1,27.91,26.74q10.1,17.17,10.1,38.86t-10.21,38.76a71.58,71.58,0,0,1-28.23,26.74q-18,9.66-41,9.66H478V58.21h62.49Q563,58.21,580.83,67.77ZM565.9,176.85a45,45,0,0,0,17.29-17.6,52.21,52.21,0,0,0,6.23-25.66A52.06,52.06,0,0,0,583,107.71a45.59,45.59,0,0,0-17.72-17.82A50.66,50.66,0,0,0,540,83.55H506.74v99.64H541.1A48.92,48.92,0,0,0,565.9,176.85Z"/><path class="cls-2" d="M710.74,208.53v-14A37.67,37.67,0,0,1,695.28,206a56.86,56.86,0,0,1-21.69,3.87,46.2,46.2,0,0,1-21.15-4.62,33.88,33.88,0,0,1-14.06-12.78,34.48,34.48,0,0,1-4.94-18.25q0-16.09,11.38-25.23T677,139.6h33.5v-3q0-10.08-6.66-15.67t-19.32-5.59q-16.34,0-34.15,10.74l-10.09-19.33A127,127,0,0,1,664.9,95.9a90.07,90.07,0,0,1,25.87-3.33q22.34,0,34.68,10.74T738,133.37l.21,75.16Zm-9.88-25.88q8.6-5.68,9.67-14.06V158.28h-29q-11.17,0-16.43,3.33t-5.26,10.84a14,14,0,0,0,5.48,11.6q5.48,4.29,14.92,4.29Q692.27,188.34,700.86,182.65Z"/><path class="cls-2" d="M836.79,201.44A54.53,54.53,0,0,1,808,209.82q-14.81,0-24.26-8.7t-9.45-25.66V118.77H758.19L758,98.37H774.3V66.8H802V98.37h32.85v20.4H802v51.75q0,7.95,3,11.27c2,2.23,5,3.33,9,3.33q6.44,0,16.32-4.72Z"/><path class="cls-2" d="M926.55,208.53v-14A37.67,37.67,0,0,1,911.09,206a56.86,56.86,0,0,1-21.69,3.87,46.2,46.2,0,0,1-21.15-4.62,33.85,33.85,0,0,1-14.07-12.78,34.57,34.57,0,0,1-4.94-18.25q0-16.09,11.39-25.23t32.21-9.34h33.49v-3q0-10.08-6.65-15.67t-19.33-5.59q-16.32,0-34.14,10.74l-10.09-19.33A127.15,127.15,0,0,1,880.7,95.9a90.15,90.15,0,0,1,25.88-3.33q22.33,0,34.68,10.74t12.56,30.06l.22,75.16Zm-9.88-25.88q8.58-5.68,9.66-14.06V158.28h-29q-11.16,0-16.42,3.33t-5.26,10.84a14,14,0,0,0,5.47,11.6q5.48,4.29,14.93,4.29Q908.08,188.34,916.67,182.65Z"/><path class="cls-2" d="M1087.17,131.65h25.12v76.88h-21.47V195.64a72.79,72.79,0,0,1-19.65,11.06,60,60,0,0,1-21.15,4,75.68,75.68,0,0,1-66.57-38.33,77.73,77.73,0,0,1-10.09-39.18,73.59,73.59,0,0,1,10.63-39,76.68,76.68,0,0,1,29.2-27.7,84,84,0,0,1,41.12-10.2,91.75,91.75,0,0,1,31.89,5.8A86.72,86.72,0,0,1,1113.58,78l-16.53,21.26a62.42,62.42,0,0,0-19.76-12.67,60.2,60.2,0,0,0-22.76-4.51,51.92,51.92,0,0,0-26.09,6.76,49.8,49.8,0,0,0-18.79,18.58,50.33,50.33,0,0,0-6.87,25.77,52,52,0,0,0,6.66,26,49.9,49.9,0,0,0,18.14,18.68,48.65,48.65,0,0,0,25.45,6.87,44.67,44.67,0,0,0,18.79-4.08,45.39,45.39,0,0,0,15.35-11.38Z"/><path class="cls-2" d="M1212.57,208.53v-14A37.67,37.67,0,0,1,1197.11,206a56.86,56.86,0,0,1-21.69,3.87,46.2,46.2,0,0,1-21.15-4.62,33.76,33.76,0,0,1-14.06-12.78,34.48,34.48,0,0,1-4.94-18.25q0-16.09,11.38-25.23t32.21-9.34h33.5v-3q0-10.08-6.66-15.67t-19.33-5.59q-16.32,0-34.14,10.74l-10.09-19.33a127,127,0,0,1,24.59-10.84,90,90,0,0,1,25.87-3.33q22.34,0,34.68,10.74t12.56,30.06l.22,75.16Zm-9.88-25.88q8.6-5.68,9.67-14.06V158.28h-29q-11.16,0-16.42,3.33t-5.26,10.84a13.94,13.94,0,0,0,5.48,11.6q5.47,4.29,14.92,4.29Q1194.09,188.34,1202.69,182.65Z"/><path class="cls-2" d="M1300,181a9.67,9.67,0,0,0,7.73,3.22q4.5,0,11.38-3.43l3.22,23.4a48.28,48.28,0,0,1-21.69,5.59q-13.53,0-22.33-9.34t-8.8-26.74V49.19h27.7V171.38C1297.18,175.68,1298.1,178.9,1300,181Z"/><path class="cls-2" d="M1407.55,208.53v-14A37.67,37.67,0,0,1,1392.09,206a56.86,56.86,0,0,1-21.69,3.87,46.2,46.2,0,0,1-21.15-4.62,33.85,33.85,0,0,1-14.07-12.78,34.57,34.57,0,0,1-4.94-18.25q0-16.09,11.39-25.23t32.21-9.34h33.49v-3q0-10.08-6.65-15.67t-19.33-5.59q-16.32,0-34.14,10.74l-10.09-19.33A127.15,127.15,0,0,1,1361.7,95.9a90.15,90.15,0,0,1,25.88-3.33q22.34,0,34.68,10.74t12.56,30.06l.22,75.16Zm-9.88-25.88q8.58-5.68,9.66-14.06V158.28h-29q-11.16,0-16.42,3.33t-5.26,10.84a14,14,0,0,0,5.47,11.6q5.47,4.29,14.93,4.29Q1389.07,188.34,1397.67,182.65Z"/><path class="cls-2" d="M1454.15,93.65h32.21L1510.19,131l24.48-37.36h30.71l-36.5,56L1568,208.53h-32.21l-25.56-40.16-27.7,40.16h-31.14l40.16-58.84Z"/><path class="cls-2" d="M1621.11,244.28q-10,7.2-23.73,7.2a43.83,43.83,0,0,1-15.14-2.48,47.13,47.13,0,0,1-13.42-7.83l12-21.26a35.49,35.49,0,0,0,7.52,4.4,19.24,19.24,0,0,0,7.3,1.4q11.37,0,16.75-11.6l3.44-7.51L1568.39,93.65h29L1630,177.18l29.85-83.53H1688l-51.53,129.27Q1631.09,237.1,1621.11,244.28Z"/></svg>