<?xml version="1.0" encoding="utf-8"?>
<!-- Generator: Adobe Illustrator 25.4.1, SVG Export Plug-In . SVG Version: 6.00 Build 0)  -->
<svg version="1.1" id="Calque_1" xmlns="http://www.w3.org/2000/svg" xmlns:xlink="http://www.w3.org/1999/xlink" x="0px" y="0px"
	 viewBox="0 0 343.2 210.4" style="enable-background:new 0 0 343.2 210.4;" xml:space="preserve">
<style type="text/css">
	.st0{fill:#FFFFFF;}
</style>
<path class="st0" d="M288.5,61c-16.7-47.5-68.8-72.5-116.3-55.8c-31.5,11.1-54.4,38.5-59.8,71.4C78.7,54.7,33.7,64.3,11.8,98
	s-12.3,78.8,21.4,100.7c11.8,7.7,25.6,11.8,39.7,11.7h194.1c45,0,76.2-37.8,76.2-76.3C343.2,100.3,320.9,70.6,288.5,61z M72.8,184.1
	c-25.7,0-46.5-20.8-46.4-46.5c0-25.7,20.8-46.5,46.5-46.4c25.6,0,46.4,20.8,46.4,46.5C119.3,163.3,98.5,184.1,72.8,184.1z
	 M266.8,184.1c-20.2,0-38.4-12.1-46.2-30.8c-34.4,10-70.3-9.7-80.4-44.1c-10-34.4,9.7-70.3,44.1-80.4s70.3,9.7,80.4,44.1
	c1.1,3.6,1.8,7.4,2.2,11.1c27.6,0,50,22.4,49.9,50C316.9,161.8,294.5,184.2,266.8,184.1L266.8,184.1z"/>
</svg>
