<svg width="16" height="17" viewBox="0 0 16 17" fill="none" xmlns="http://www.w3.org/2000/svg">
<path d="M8.00048 15.1665C4.32448 15.1665 1.33398 12.1765 1.33398 8.5C1.33398 4.8245 4.32448 1.8335 8.00048 1.8335C11.6765 1.8335 14.667 4.824 14.667 8.5C14.667 12.1765 11.6765 15.1665 8.00048 15.1665V15.1665ZM8.00048 3.1665C5.05998 3.1665 2.66698 5.559 2.66698 8.5C2.66698 11.441 5.05948 13.8335 8.00048 13.8335C10.9415 13.8335 13.334 11.441 13.334 8.5C13.334 5.559 10.9415 3.1665 8.00048 3.1665Z" fill="#001030"/>
<path d="M8.66603 10.5H7.33253V8.5H7.99903C8.73503 8.5 9.33253 7.902 9.33253 7.1665C9.33253 6.4305 8.73503 5.833 7.99903 5.833C7.26303 5.833 6.66553 6.4305 6.66553 7.1665H5.33203C5.33203 5.6965 6.52853 4.5 7.99853 4.5C9.46853 4.5 10.665 5.6965 10.665 7.1665C10.665 8.4065 9.81353 9.452 8.66503 9.75V10.5H8.66603Z" fill="#444444"/>
<path d="M8.83302 11.8335C8.83302 12.2935 8.46002 12.667 7.99952 12.667C7.53902 12.667 7.16602 12.294 7.16602 11.8335C7.16602 11.3735 7.53902 11 7.99952 11C8.46002 11 8.83302 11.373 8.83302 11.8335Z" fill="#444444"/>
</svg>
