<svg width="16" height="16" viewBox="0 0 16 16" fill="none" xmlns="http://www.w3.org/2000/svg">
<path d="M6 15.3335H7.3335V16H8.667V15.3335H10.0005V14H6.0005L6 15.3335Z" fill="#5A5E86"/>
<path d="M8 3.3335C5.4275 3.3335 3.3335 5.427 3.3335 8C3.3335 9.8095 4.3875 11.4465 6 12.2125V12.6665C6 13.0345 6.298 13.333 6.6665 13.333H9.333C9.7015 13.333 9.9995 13.0345 9.9995 12.6665V12.2125C11.612 11.447 12.666 9.81 12.666 8C12.666 5.4265 10.572 3.3335 7.9995 3.3335H8ZM9.1105 11.1395C8.845 11.2335 8.6665 11.4855 8.6665 11.7675V12H7.333V11.7675C7.333 11.485 7.1545 11.2335 6.889 11.1395C5.5595 10.669 4.6665 9.407 4.6665 8C4.6665 6.162 6.162 4.6665 8 4.6665C9.838 4.6665 11.3335 6.162 11.3335 8C11.3335 9.4065 10.44 10.6685 9.111 11.1395H9.1105Z" fill="#5A5E86"/>
<path d="M7.3335 0H8.667V2.6665H7.3335V0Z" fill="#5A5E86"/>
<path d="M0 7.3335H2.6665V8.667H0V7.3335Z" fill="#5A5E86"/>
<path d="M13.3335 7.3335H16V8.667H13.3335V7.3335Z" fill="#5A5E86"/>
<path d="M13.5278 1.52881L14.4703 2.47081L12.4703 4.47131L11.5278 3.52931L13.5278 1.52881Z" fill="#5A5E86"/>
<path d="M2.47131 1.52832L4.47131 3.52832L3.52881 4.47082L1.52881 2.47082L2.47131 1.52832Z" fill="#5A5E86"/>
</svg>
