<svg width="12" height="12" viewBox="0 0 12 12" fill="none" xmlns="http://www.w3.org/2000/svg">
<path d="M7.99952 1.726V3.208C9.19352 3.9015 9.99952 5.1905 9.99952 6.6665C9.99952 8.8725 8.20552 10.6665 5.99952 10.6665C3.79352 10.6665 1.99952 8.8725 1.99952 6.6665C1.99952 5.19 2.80552 3.901 3.99952 3.208V1.726C2.04752 2.5195 0.666016 4.4335 0.666016 6.6665C0.666016 9.607 3.05852 12 5.99952 12C8.94052 12 11.333 9.6075 11.333 6.6665C11.333 4.433 9.95152 2.519 7.99952 1.726ZM5.33302 0H6.66652V5.3335H5.33302V0Z" fill="white"/>
</svg>
