<svg width="12" height="12" viewBox="0 0 12 12" fill="none" xmlns="http://www.w3.org/2000/svg">
<g clip-path="url(#clip0)">
<path fill-rule="evenodd" clip-rule="evenodd" d="M1.20144 0.877591C0.538164 0.877591 -4.54692e-07 1.41572 -4.25698e-07 2.07903L-5.25166e-08 10.6164C-2.35034e-08 11.2802 0.538128 11.8179 1.20144 11.8179L9.73884 11.8179C10.4021 11.8179 10.9403 11.2802 10.9403 10.6164L10.9403 6.34803C10.9403 6.14693 10.7772 5.98429 10.5765 5.98429C10.3759 5.98429 10.2128 6.14695 10.2128 6.34803L10.2128 10.6164C10.2128 10.8785 10.0005 11.0908 9.73889 11.0908L1.20149 11.0908C0.939456 11.0908 0.727584 10.8785 0.727584 10.6164L0.727584 2.07903C0.727584 1.81747 0.939455 1.60513 1.20149 1.60513L5.46989 1.60513C5.67098 1.60513 5.83363 1.44247 5.83363 1.24138C5.83363 1.04076 5.67097 0.877639 5.46989 0.877639L1.20144 0.877591ZM6.85404 4.99647C6.99607 5.1385 7.22623 5.1385 7.36826 4.99647L10.9299 1.43487L10.9421 3.82923C10.943 4.03033 11.1066 4.19204 11.3077 4.1911C11.5083 4.19016 11.6705 4.02657 11.6696 3.82547L11.6527 0.559675C11.6517 0.360451 11.4905 0.198739 11.2913 0.197803L8.02499 0.181397C7.82436 0.180459 7.66077 0.342173 7.65936 0.543269C7.65843 0.743897 7.82062 0.907493 8.02124 0.908429L10.4156 0.920616L6.854 4.48222C6.71196 4.62425 6.71196 4.85441 6.854 4.99644L6.85404 4.99647Z" fill="black"/>
</g>
<defs>
<clipPath id="clip0">
<rect width="12" height="12" fill="white" transform="translate(0 12) rotate(-90)"/>
</clipPath>
</defs>
</svg>
