<svg width="16" height="14" viewBox="0 0 16 14" fill="none" xmlns="http://www.w3.org/2000/svg">
<path d="M2.6665 8.3475L4.6665 6.3335H3.379C3.72 3.6845 5.961 1.658 8.6755 1.658C11.6235 1.658 14.0135 4.048 14.0135 6.996C14.0135 9.944 11.6235 12.334 8.6755 12.334C6.5975 12.334 4.7965 11.1465 3.915 9.413L2.7095 9.978C3.8285 12.1705 6.07 13.6455 8.6565 13.6455C12.332 13.6455 15.312 10.666 15.312 6.99C15.312 3.314 12.3325 0.334503 8.6565 0.334503C5.212 0.334503 2.379 2.951 2.036 6.305L0.666504 6.3335L2.6665 8.3475Z" fill="#9B9DB6"/>
</svg>
