<svg width="135" height="120" viewBox="0 0 135 120" fill="none" xmlns="http://www.w3.org/2000/svg">
<rect width="101.241" height="48.9796" rx="24.4898" fill="white"/>
<rect x="33.7476" y="31.0205" width="101.241" height="48.9796" rx="24.4898" fill="white"/>
<path fill-rule="evenodd" clip-rule="evenodd" d="M83.3925 34.9068C83.7189 35.1607 84.0259 35.4386 84.311 35.7382C85.4316 36.8408 86.2949 38.1774 86.8393 39.6525C87.3837 41.1276 87.5958 42.7048 87.4603 44.2714L86.4542 56.174C85.8961 63.7538 82.6367 70.8814 77.2689 76.2597L67.996 85.9306C68.6227 89.1294 68.3856 92.4375 67.3093 95.5142C66.233 98.5909 64.3562 101.325 61.8725 103.434L54.6116 109.43C53.0434 110.709 51.0803 111.405 49.0567 111.399C48.2879 111.405 47.5221 111.302 46.7822 111.092C45.4369 110.724 44.199 110.04 43.1718 109.096C42.1446 108.152 41.3579 106.976 40.8773 105.666C40.3525 104.353 39.7838 102.997 39.1277 101.728C38.6037 101.771 38.0771 101.771 37.5531 101.728C35.243 101.73 33.026 100.817 31.3858 99.1898L20.8007 88.5999C19.8048 87.5989 19.0658 86.3716 18.6469 85.0228C18.228 83.6741 18.1416 82.2439 18.3951 80.8545C17.1266 80.2418 15.7707 79.6292 14.2835 79.0603C12.9936 78.558 11.8413 77.7566 10.9212 76.722C10.0012 75.6874 9.33963 74.4492 8.99098 73.109C8.63836 71.7683 8.60913 70.363 8.9057 69.0087C9.20228 67.6545 9.81618 66.3902 10.6968 65.3198L16.7329 58.0557C18.4334 56.0313 20.5553 54.4029 22.9502 53.2843C25.3452 52.1656 27.9554 51.5837 30.5985 51.5792C31.8631 51.5691 33.1249 51.7013 34.3601 51.9731L43.7204 42.696C49.0406 37.3411 56.0995 34.0661 63.622 33.4627L75.6068 32.5H76.569C79.0471 32.5248 81.4469 33.3712 83.3925 34.9068ZM71.0578 70.1771C74.9594 66.2951 77.3348 61.1383 77.75 55.6489L78.4936 43.5712C78.5332 43.2725 78.5067 42.9687 78.416 42.6814C78.3253 42.394 78.1726 42.1301 77.9687 41.9083C77.5353 41.5143 76.979 41.2823 76.3941 41.2519L64.2344 42.2147C58.7475 42.63 53.593 45.0065 49.7128 48.9099L37.7718 60.8125C37.4147 61.1309 36.9809 61.3507 36.513 61.4505C36.0452 61.5502 35.5595 61.5264 35.1037 61.3814L33.8352 60.9C32.7993 60.5173 31.7028 60.3246 30.5985 60.3312C29.2356 60.3456 27.8913 60.6496 26.6546 61.223C25.418 61.7963 24.3172 62.6259 23.4251 63.6569L17.4765 70.921C21.39 72.4062 25.095 74.3919 28.499 76.8286C28.7918 77.0453 29.0364 77.3206 29.2172 77.637C29.3979 77.9534 29.5108 78.304 29.5487 78.6665C29.5853 79.0299 29.5372 79.3968 29.4082 79.7385C29.2792 80.0802 29.0728 80.3873 28.8051 80.6357L27.0118 82.4298L37.5531 92.9759L39.3902 91.1818C39.8575 90.7201 40.4832 90.4541 41.1398 90.4379H41.3585C41.7293 90.4389 42.0936 90.5363 42.4156 90.7204C42.7376 90.9044 43.0063 91.169 43.1955 91.4881C45.6489 94.8755 47.6214 98.5866 49.0567 102.516L56.3175 96.5642C57.7949 95.3054 58.851 93.6238 59.3437 91.746C59.8364 89.8681 59.742 87.8843 59.0731 86.0619L58.592 84.7929C58.4115 84.3417 58.3692 83.847 58.4705 83.3717C58.5717 82.8963 58.8119 82.4619 59.1606 82.1235L71.0578 70.1771ZM52.4684 71.8837C52.4684 74.3005 50.5101 76.2597 48.0944 76.2597C45.6787 76.2597 43.7204 74.3005 43.7204 71.8837C43.7204 69.467 45.6787 67.5078 48.0944 67.5078C50.5101 67.5078 52.4684 69.467 52.4684 71.8837ZM13.6274 93.9824C12.8079 93.1674 11.6993 92.7099 10.5438 92.7099C9.38822 92.7099 8.27962 93.1674 7.4601 93.9824L1.29279 100.153C0.884961 100.558 0.560892 101.039 0.33908 101.57C0.117269 102.1 0.00205815 102.669 2.73249e-05 103.244C-0.0020035 103.819 0.109185 104.389 0.327244 104.921C0.545304 105.453 0.865964 105.937 1.27092 106.345C1.67587 106.753 2.15718 107.077 2.68738 107.299C3.21757 107.521 3.78626 107.636 4.36098 107.638C4.9357 107.64 5.50519 107.529 6.03694 107.311C6.56869 107.092 7.05228 106.772 7.4601 106.366L13.6274 100.153C14.4421 99.3326 14.8993 98.2235 14.8993 97.0675C14.8993 95.9114 14.4421 94.8023 13.6274 93.9824ZM12.3565 115.637C12.3524 114.476 12.8096 113.361 13.6274 112.537L19.8385 106.366H20.0572C20.8939 105.649 21.9702 105.275 23.0711 105.317C24.1719 105.36 25.2161 105.817 25.9951 106.596C26.7741 107.375 27.2305 108.42 27.273 109.521C27.3155 110.623 26.9411 111.699 26.2245 112.537L19.8385 118.707C19.0206 119.531 17.9091 119.996 16.7484 120C15.5877 120.004 14.4729 119.547 13.6493 118.729C12.8256 117.91 12.3606 116.798 12.3565 115.637Z" fill="url(#paint0_linear_1398_27040)"/>
<g clip-path="url(#clip0_1398_27040)">
<path d="M124.281 0.875392L127.143 7.6493L134.47 8.27859C134.979 8.32219 135.185 8.95641 134.799 9.29039L129.242 14.1054L130.908 21.2688C131.023 21.7666 130.484 22.1583 130.047 21.8939L123.75 18.0963L117.453 21.8939C117.015 22.1576 116.477 21.7659 116.592 21.2688L118.258 14.1054L112.699 9.28899C112.313 8.955 112.519 8.32078 113.028 8.27719L120.355 7.64789L123.217 0.875392C123.416 0.404298 124.082 0.404298 124.281 0.875392H124.281Z" fill="#7C5EFD"/>
</g>
<g clip-path="url(#clip1_1398_27040)">
<path d="M101.79 95.2072L104.015 100.476L109.714 100.965C110.109 100.999 110.27 101.492 109.97 101.752L105.647 105.497L106.943 111.069C107.033 111.456 106.613 111.761 106.274 111.555L101.376 108.601L96.4788 111.555C96.1381 111.76 95.7198 111.455 95.8095 111.069L97.1049 105.497L92.7817 101.751C92.4815 101.491 92.6417 100.998 93.0376 100.964L98.7361 100.475L100.962 95.2072C101.116 94.8408 101.634 94.8408 101.789 95.2072H101.79Z" fill="#8EE4F4"/>
</g>
<defs>
<linearGradient id="paint0_linear_1398_27040" x1="-16.4421" y1="79.0679" x2="105.87" y2="92.5882" gradientUnits="userSpaceOnUse">
<stop stop-color="#7C5EFD"/>
<stop offset="0.838749" stop-color="#80E0F3"/>
</linearGradient>
<clipPath id="clip0_1398_27040">
<rect width="22.5" height="22.5" fill="white" transform="translate(112.5)"/>
</clipPath>
<clipPath id="clip1_1398_27040">
<rect width="17.4985" height="17.5" fill="white" transform="translate(92.627 94.5264)"/>
</clipPath>
</defs>
</svg>
