<?xml version="1.0" standalone="no"?>
<!DOCTYPE svg PUBLIC "-//W3C//DTD SVG 1.1//EN" "http://www.w3.org/Graphics/SVG/1.1/DTD/svg11.dtd" >
<svg xmlns="http://www.w3.org/2000/svg">
<metadata>Generated by IcoMoon</metadata>
<defs>
<font id="datagalaxy" horiz-adv-x="1024">
<font-face units-per-em="1024" ascent="960" descent="-64" />
<missing-glyph horiz-adv-x="1024" />
<glyph unicode="&#x20;" horiz-adv-x="512" d="" />
<glyph unicode="&#xe61a;" glyph-name="favorites" d="M810.667 5.632v805.035h-597.333v-805.035l298.667 199.168zM298.667 725.334h426.667v-560.299l-213.333 142.165-213.333-142.165v560.299z" />
<glyph unicode="&#xe61f;" glyph-name="view-details" d="M512 384h384v426.667h-384v-426.667zM597.333 725.334h213.333v-256h-213.333v256zM426.667 810.667h-298.667v-256h298.667v256zM341.333 640h-128v85.333h128v-85.333zM128 469.334h298.667v-85.333h-298.667v85.333zM128 42.667h768v256h-768v-256zM213.333 213.334h597.333v-85.333h-597.333v85.333z" />
<glyph unicode="&#xe620;" glyph-name="delete" d="M213.333 128c0-70.692 57.308-128 128-128h341.333c70.692 0 128 57.308 128 128v512h-597.333v-512zM298.667 554.667h426.667v-426.667c0-23.564-19.103-42.667-42.667-42.667h-341.333c-23.564 0-42.667 19.103-42.667 42.667v426.667zM213.333 725.334h597.333v85.333h-213.333v42.667h-170.667v-42.667h-213.333v-85.333zM384 469.334h85.333v-298.667h-85.333v298.667zM554.667 469.334h85.333v-298.667h-85.333v298.667z" />
<glyph unicode="&#xe623;" glyph-name="check" d="M384 230.998l-183.168 183.168-60.331-60.331 243.499-243.499 499.499 499.499-60.331 60.331-439.168-439.168z" />
<glyph unicode="&#xe635;" glyph-name="recent" d="M170.667 340.438l128 128.896h-82.389c21.819 169.547 165.261 299.224 338.99 299.224 188.678 0 341.632-152.954 341.632-341.632s-152.954-341.632-341.632-341.632c-133 0-248.248 76.001-304.686 186.942l-77.141-36.16c71.624-140.305 215.087-234.708 380.599-234.708 235.241 0 425.941 190.7 425.941 425.941s-190.7 425.941-425.941 425.941c-220.441 0-401.769-167.46-423.713-382.106l-87.659-1.81zM712.832 328.832l-115.499 115.499v238.336h-85.333v-273.664l140.501-140.501 60.331 60.331z" />
<glyph unicode="&#xe639;" glyph-name="info" d="M512 768c188.513 0 341.333-152.82 341.333-341.333s-152.82-341.333-341.333-341.333c-188.513 0-341.333 152.82-341.333 341.333 0.218 188.425 152.908 341.115 341.312 341.333zM512 853.334c-235.641 0-426.667-191.025-426.667-426.667s191.025-426.667 426.667-426.667c235.641 0 426.667 191.025 426.667 426.667s-191.025 426.667-426.667 426.667v0zM469.931 682.667h85.333v-85.333h-85.333v85.333zM469.931 512h85.333v-341.333h-85.333v341.333zM427.264 512h128v-85.333h-128v85.333zM427.264 256h170.667v-85.333h-170.667v85.333z" />
<glyph unicode="&#xe640;" glyph-name="view-list" d="M298.667 640h341.333v-85.333h-341.333v85.333zM298.667 298.667h341.333v-85.333h-341.333v85.333zM298.667 469.334h341.333v-85.333h-341.333v85.333zM298.667 128h341.333v-85.333h-341.333v85.333zM128 640h85.333v-85.333h-85.333v85.333zM298.667 810.667h341.333v-85.333h-341.333v85.333zM725.333 640h170.667v-85.333h-170.667v85.333zM725.333 298.667h170.667v-85.333h-170.667v85.333zM725.333 469.334h170.667v-85.333h-170.667v85.333zM725.333 128h170.667v-85.333h-170.667v85.333zM725.333 810.667h170.667v-85.333h-170.667v85.333zM128 810.667h85.333v-85.333h-85.333v85.333zM128 298.667h85.333v-85.333h-85.333v85.333zM128 469.334h85.333v-85.333h-85.333v85.333zM128 128h85.333v-85.333h-85.333v85.333z" />
<glyph unicode="&#xe643;" glyph-name="lock" d="M576 234.667c0-35.346-28.654-64-64-64s-64 28.654-64 64c0 35.346 28.654 64 64 64s64-28.654 64-64zM725.333 469.334v170.667c0 117.632-95.701 213.333-213.333 213.333s-213.333-95.701-213.333-213.333v-170.667c-47.104 0-85.333-38.229-85.333-85.333v-298.667c0-47.061 38.229-85.333 85.333-85.333h426.667c47.104 0 85.333 38.272 85.333 85.333v298.667c0 47.104-38.229 85.333-85.333 85.333zM384 640c0 70.571 57.429 128 128 128s128-57.429 128-128v-170.667h-256v170.667zM298.667 85.334v298.667h426.667l0.085-298.667h-426.752z" />
<glyph unicode="&#xe660;" glyph-name="search" d="M426.667 849.323c-0.159 0-0.348 0-0.536 0-188.513 0-341.333-152.82-341.333-341.333s152.82-341.333 341.333-341.333c79.352 0 152.38 27.078 210.348 72.498l229.356-230.621 60.331 60.331-230.101 230.101c44.827 57.165 71.887 130.127 71.887 209.408 0 188.301-152.648 340.949-340.949 340.949-0.118 0-0.235 0-0.353 0zM426.667 251.99c-141.385 0-256 114.615-256 256s114.615 256 256 256c141.385 0 256-114.615 256-256-0.17-141.316-114.683-255.83-255.983-256z" />
<glyph unicode="&#xe661;" glyph-name="settings" d="M819.2 553.814c21.113 22.673 34.072 53.184 34.072 86.722 0 70.363-57.040 127.403-127.403 127.403-33.538 0-64.049-12.959-86.799-34.143-4.293 66.873-59.547 119.401-127.070 119.401s-122.776-52.528-127.127-118.95c-22.693 20.733-53.204 33.692-86.742 33.692-70.363 0-127.403-57.040-127.403-127.403 0-33.538 12.959-64.049 34.143-86.799-66.873-4.293-119.401-59.547-119.401-127.070s52.528-122.776 118.95-127.127c-20.733-22.693-33.692-53.204-33.692-86.742 0-70.363 57.040-127.403 127.403-127.403 33.538 0 64.049 12.959 86.799 34.143 4.293-66.873 59.547-119.401 127.070-119.401s122.776 52.528 127.127 118.95c22.693-20.733 53.204-33.692 86.742-33.692 70.363 0 127.403 57.040 127.403 127.403 0 33.538-12.959 64.049-34.143 86.799 66.873 4.293 119.401 59.547 119.401 127.070s-52.528 122.776-118.95 127.127zM810.667 384h-46.507c-6.893-40.077-22.252-75.663-44.208-106.186l33.413-32.14c7.729-7.724 12.51-18.397 12.51-30.187 0-23.569-19.106-42.675-42.675-42.675-11.779 0-22.444 4.772-30.166 12.489l-32.896 32.938c-29.776-21.459-65.376-36.834-103.956-43.516l-1.516-46.724c0-23.564-19.103-42.667-42.667-42.667s-42.667 19.103-42.667 42.667v46.507c-40.080 6.906-75.665 22.28-106.184 44.25l-32.141-33.413c-7.724-7.729-18.397-12.51-30.187-12.51-23.569 0-42.675 19.106-42.675 42.675 0 11.779 4.772 22.444 12.489 30.166l32.938 32.896c-21.451 29.765-36.824 65.35-43.515 103.912l-46.725 1.518c-23.564 0-42.667 19.103-42.667 42.667s19.103 42.667 42.667 42.667h46.507c6.906 40.080 22.28 75.665 44.25 106.184l-33.413 32.141c-7.729 7.724-12.51 18.397-12.51 30.187 0 23.569 19.106 42.675 42.675 42.675 11.779 0 22.444-4.772 30.166-12.489l32.896-32.938c29.764 21.453 65.349 36.827 103.912 43.516l1.517 46.724c0 23.564 19.103 42.667 42.667 42.667s42.667-19.103 42.667-42.667v-46.507c40.080-6.906 75.665-22.28 106.184-44.25l32.141 33.413c7.724 7.729 18.397 12.51 30.187 12.51 23.569 0 42.675-19.106 42.675-42.675 0-11.779-4.772-22.444-12.489-30.166l-32.938-32.896c21.451-29.765 36.824-65.35 43.515-103.912l46.725-1.518c23.564 0 42.667-19.103 42.667-42.667s-19.103-42.667-42.667-42.667zM682.667 426.667c0 94.257-76.41 170.667-170.667 170.667s-170.667-76.41-170.667-170.667c0-94.257 76.41-170.667 170.667-170.667s170.667 76.41 170.667 170.667zM426.667 426.667c0 47.128 38.205 85.333 85.333 85.333s85.333-38.205 85.333-85.333c0-47.128-38.205-85.333-85.333-85.333s-85.333 38.205-85.333 85.333z" />
<glyph unicode="&#xe6fd;" glyph-name="add" d="M554.667 810.667h-85.333v-341.333h-341.333v-85.333h341.333v-341.333h85.333v341.333h341.333v85.333h-341.333v341.333z" />
<glyph unicode="&#xe71b;" glyph-name="send" d="M112.853 110.934c15.464-16.656 37.469-27.056 61.902-27.093 12.074 0.007 23.556 2.501 33.972 6.998l703.827 296.362c15.49 6.628 26.147 21.739 26.147 39.339s-10.656 32.711-25.869 39.233l-704.662 296.81c-9.778 4.231-21.164 6.691-33.124 6.691-47.128 0-85.333-38.205-85.333-85.333 0-13.917 3.332-27.057 9.241-38.664l109.344-218.609-109.568-219.093c-5.781-11.149-9.171-24.339-9.171-38.322 0-22.62 8.872-43.168 23.327-58.353zM174.635 684.075h0.427l509.653-214.741h-402.389zM282.368 384h402.347l-509.781-214.571z" />
<glyph unicode="&#xe71c;" glyph-name="sort" d="M128 170.667h256v85.333h-256v-85.333zM128 682.667v-85.333h768v85.333h-768zM128 384h512v85.333h-512v-85.333z" />
<glyph unicode="&#xe7b2;" glyph-name="upload" d="M853.333 170.667c0-47.128-38.205-85.333-85.333-85.333v0h-512c-47.128 0-85.333 38.205-85.333 85.333v0 213.333h-85.333v-213.333c0-94.257 76.41-170.667 170.667-170.667v0h512c94.257 0 170.667 76.41 170.667 170.667v0 213.333h-85.333zM755.627 524.374l-60.587 60.587-140.373-140.8v409.173h-85.333v-409.173l-140.373 140.8-60.587-60.587 243.627-243.2 243.627 243.2z" />
<glyph unicode="&#xe7c2;" glyph-name="collapse" d="M657.707 241.707l-195.627 195.627 195.627 195.627-60.373 60.373-256-256 256-256z" />
<glyph unicode="&#xe7c3;" glyph-name="uncollapse" d="M366.293 236.374l195.627 195.627-195.627 195.627 60.373 60.373 256-256-256-256z" />
<glyph unicode="&#xe809;" glyph-name="edit" d="M888.363 803.030c-32.427 32.469-75.605 50.304-121.472 50.304-45.824 0-89.003-17.835-121.429-50.304l-486.784-486.741c0 0-0.043-0.128-0.128-0.171-3.456-3.499-9.344-12.715-11.136-19.669l-60.8-243.371c-3.669-14.507 0.64-29.952 11.221-40.491l0.085-0.085c10.581-10.581 25.941-14.891 40.491-11.264l243.371 60.885c6.955 1.792 16.213 7.68 19.669 11.136 0.043 0.043 0.171 0.128 0.171 0.128l486.784 486.699c32.427 32.469 50.304 75.563 50.261 121.472 0 45.867-17.835 89.003-50.261 121.472h-0.043zM614.869 651.606l122.155-122.155-365.568-365.568-122.155 122.155 365.568 365.568zM186.667 101.291l25.387 101.291 75.947-75.989-101.333-25.301zM828.117 742.656c32.597-32.64 32.597-89.557 0-122.197l-30.677-30.72-122.283 122.24 30.763 30.677c32.64 32.597 89.557 32.64 122.197 0z" />
<glyph unicode="&#xe8a1;" glyph-name="arrow-drop-down" d="M298.667 512l213.333-213.333 213.333 213.333z" />
<glyph unicode="&#xe8a3;" glyph-name="arrow-drop-up" d="M298.667 341.334l213.333 213.333 213.333-213.333z" />
<glyph unicode="&#xe8a9;" glyph-name="cancelsearch" d="M243.499 97.835l268.501 268.501 268.501-268.501 60.331 60.331-268.501 268.501 268.501 268.501-60.331 60.331-268.501-268.501-268.501 268.501-60.331-60.331 268.501-268.501-268.501-268.501 60.331-60.331z" />
<glyph unicode="&#xe8ab;" glyph-name="expand-more" d="M426.667 316.331l-97.835 97.835-60.331-60.331 158.165-158.165 328.832 328.832-60.331 60.331-268.501-268.501z" />
<glyph unicode="&#xe8b0;" glyph-name="splitter" d="M512 597.334c47.147 0 85.333 38.187 85.333 85.333s-38.187 85.333-85.333 85.333-85.333-38.187-85.333-85.333 38.187-85.333 85.333-85.333zM512 512c-47.147 0-85.333-38.187-85.333-85.333s38.187-85.333 85.333-85.333 85.333 38.187 85.333 85.333-38.187 85.333-85.333 85.333zM512 256c-47.147 0-85.333-38.187-85.333-85.333s38.187-85.333 85.333-85.333 85.333 38.187 85.333 85.333-38.187 85.333-85.333 85.333z" />
<glyph unicode="&#xe8e5;" glyph-name="person" d="M512.085 426.411c-94.123 0-170.667 76.544-170.667 170.667 0 94.080 76.544 170.667 170.667 170.667s170.667-76.587 170.667-170.667c0-94.123-76.544-170.667-170.667-170.667zM512.085 682.411c-47.061 0-85.333-38.229-85.333-85.333 0-47.061 38.272-85.333 85.333-85.333s85.333 38.272 85.333 85.333c0 47.104-38.272 85.333-85.333 85.333zM853.419 85.078h-682.667v42.667c0 150.741 140.373 256 341.333 256s341.333-105.259 341.333-256v-42.667zM262.869 170.411h498.475c-25.515 77.141-120.875 128-249.216 128s-223.744-50.859-249.259-128z" />
<glyph unicode="&#xe8e7;" glyph-name="profile" d="M512.085 426.411c-94.123 0-170.667 76.544-170.667 170.667 0 94.080 76.544 170.667 170.667 170.667s170.667-76.587 170.667-170.667c0-94.123-76.544-170.667-170.667-170.667zM512.085 682.411c-47.061 0-85.333-38.229-85.333-85.333 0-47.061 38.272-85.333 85.333-85.333s85.333 38.272 85.333 85.333c0 47.104-38.272 85.333-85.333 85.333zM853.419 85.078h-682.667v42.667c0 150.741 140.373 256 341.333 256s341.333-105.259 341.333-256v-42.667zM262.869 170.411h498.475c-25.515 77.141-120.875 128-249.216 128s-223.744-50.859-249.259-128z" />
<glyph unicode="&#xe8ec;" glyph-name="mapping" d="M768 252.374c-32.427 0-61.653-12.587-83.84-32.853l-304 177.28c2.347 9.6 3.84 19.627 3.84 29.867s-1.493 20.267-3.84 29.867l300.8 175.573c22.827-21.333 53.333-34.56 87.040-34.56 70.613 0 128 57.387 128 128s-57.387 128-128 128-128-57.387-128-128c0-10.24 1.493-20.267 3.84-29.867l-300.8-175.573c-22.827 21.333-53.333 34.56-87.040 34.56-70.613 0-128-57.387-128-128s57.387-128 128-128c33.707 0 64.213 13.227 87.040 34.56l304-177.28c-2.133-8.96-3.413-18.347-3.413-27.947 0-68.693 55.68-124.373 124.373-124.373s124.373 55.68 124.373 124.373-55.68 124.373-124.373 124.373z" />
<glyph unicode="&#xe900;" glyph-name="organization" d="M640 426.667c-117.821 0-213.333-95.513-213.333-213.333s95.513-213.333 213.333-213.333c117.821 0 213.333 95.513 213.333 213.333-0.146 117.762-95.571 213.188-213.319 213.333zM640 85.334c-70.692 0-128 57.308-128 128s57.308 128 128 128c70.692 0 128-57.308 128-128s-57.308-128-128-128zM384 768c0-47.128-38.205-85.333-85.333-85.333s-85.333 38.205-85.333 85.333c0 47.128 38.205 85.333 85.333 85.333s85.333-38.205 85.333-85.333zM213.333 554.667c-70.692 0-128-57.308-128-128s57.308-128 128-128c70.692 0 128 57.308 128 128s-57.308 128-128 128zM213.333 384c-23.564 0-42.667 19.103-42.667 42.667s19.103 42.667 42.667 42.667c23.564 0 42.667-19.103 42.667-42.667s-19.103-42.667-42.667-42.667zM768 853.334c-94.257 0-170.667-76.41-170.667-170.667s76.41-170.667 170.667-170.667c94.257 0 170.667 76.41 170.667 170.667s-76.41 170.667-170.667 170.667zM768 597.334c-47.128 0-85.333 38.205-85.333 85.333s38.205 85.333 85.333 85.333c47.128 0 85.333-38.205 85.333-85.333s-38.205-85.333-85.333-85.333z" />
<glyph unicode="&#xe901;" glyph-name="project" d="M173.483 468.523c22.877-20.531 50.511-36.257 81.015-45.313 1.502 0.897 1.502 2.177 1.502 3.457 0 141.385 114.615 256 256 256s256-114.615 256-256c0-1.323 0-2.56 0-3.883 32.069 9.422 59.762 25.151 82.889 45.873-21.196 169.873-164.779 300.223-338.806 300.223-174.012 0-317.585-130.328-338.433-298.698zM668.459 224.512c-42.689-33.574-97.217-53.846-156.48-53.846s-113.791 20.272-157.028 54.261c-52.096 6.977-98.928 17.903-144.093 32.533 65.987-104.276 175.633-172.103 301.121-172.103s235.134 67.828 294.276 168.821c-38.32-11.346-85.152-22.272-133.293-29.139zM512 256c227.541 0 469.333 74.752 469.333 213.333 0 66.859-56.533 118.699-140.331 154.581 24.183-39.577 41.697-85.988 49.633-135.596 3.2-6.987 5.047-12.74 5.361-18.898 0.004-52.311-149.586-128.087-383.996-128.087s-384 75.776-384 128c0.309 6.226 2.14 11.966 5.126 16.932 8.115 51.634 25.631 98.062 50.779 139.328-84.705-37.604-141.238-89.401-141.238-156.26 0-138.581 241.792-213.333 469.333-213.333z" />
<glyph unicode="&#xe902;" glyph-name="glossary2" d="M938.667 768v-581.419l-345.131-47.189c86.005 46.583 188.288 73.965 296.965 73.965 1.933 0 3.865-0.009 5.794-0.026l-0.295 640.002c-2.825 0.052-6.156 0.082-9.494 0.082-144.147 0-275.366-55.353-373.56-145.962-97.838 90.64-229.422 145.989-373.933 145.989-3.872 0-7.735-0.040-11.588-0.119l0.576-639.991c1.812 0.018 3.953 0.029 6.096 0.029 109.322 0 212.242-27.41 302.262-75.733l-351.025 48.952v581.419h-85.333v-655.915l513.323-69.803 510.677 69.803v655.915h-85.333zM810.667 768v-469.333c-96.94-11.706-183.961-46.609-257.732-98.959l1.732 440.292 12.16 12.8c64.28 61.935 148.351 103.732 241.821 115.002zM213.333 768c96.583-10.345 181.803-52.359 246.585-115.297l9.415-9.887v-441.856c-71.931 51.468-159.027 86.399-253.42 97.461l-2.58 469.579z" />
<glyph unicode="&#xe903;" glyph-name="catalog" d="M16 0.604l-13.333 7.699v15.395l13.333 7.697 13.333-7.697v-15.395zM25.333 9.067l-9.333 5.388-9.333-5.388 9.333-5.388zM5.333 11.381l9.333 5.389v10.776l-9.333-5.388v-10.777zM17.333 27.547v-10.777l9.333-5.388v10.776z" />
<glyph unicode="&#xe904;" glyph-name="model--rel2" d="M768 512v-256h85.333v-128c0-23.564-19.103-42.667-42.667-42.667h-128v85.333h-85.333v85.333h85.333v256h-256v-256h85.333v-85.333h-85.333v-256h256v85.333h128c70.692 0 128 57.308 128 128v128h85.333v256h-256zM512 426.667h85.333v-85.333h-85.333v85.333zM597.333-0h-85.333v85.333h85.333v-85.333zM938.667 341.334h-85.333v85.333h85.333v-85.333zM426.667 818.816l298.667-172.459-84.907-49.024h212.907v73.685l-426.667 246.315-426.667-246.315v-492.672l341.333-197.077v98.517l-256 147.797v344.875l256-147.797v98.517l-213.333 123.179 298.667 172.459z" />
<glyph unicode="&#xe905;" glyph-name="model--no-rel" d="M853.333 671.019l-426.667 246.315-426.667-246.315v-492.672l426.667-246.315 42.667 24.619v443.392l384 222.165v48.811zM384 55.168l-298.667 172.416v344.875l298.667-172.416v-344.875zM426.667 473.942l-298.667 172.416 298.667 172.416 298.667-172.459zM725.333 256.555v-341.888l298.667 172.8v341.888zM938.667 136.662l-128-74.069v144.725l128 74.283v-145.067zM853.333 415.531v98.603l-298.667-172.8v-341.333l85.333 49.365v242.731l213.333 123.435z" />
<glyph unicode="&#xe906;" glyph-name="glossary" d="M938.667 768v-581.419l-345.131-47.189c86.005 46.583 188.288 73.965 296.965 73.965 1.933 0 3.865-0.009 5.794-0.026l-0.295 640.002c-2.825 0.052-6.156 0.082-9.494 0.082-144.147 0-275.366-55.353-373.56-145.962-97.838 90.64-229.422 145.989-373.933 145.989-3.872 0-7.735-0.040-11.588-0.119l0.576-639.991c1.812 0.018 3.953 0.029 6.096 0.029 109.322 0 212.242-27.41 302.262-75.733l-351.025 48.952v581.419h-85.333v-655.915l513.323-69.803 510.677 69.803v655.915h-85.333zM810.667 768v-469.333c-96.94-11.706-183.961-46.609-257.732-98.959l1.732 440.292 12.16 12.8c64.28 61.935 148.351 103.732 241.821 115.002zM213.333 768c96.583-10.345 181.803-52.359 246.585-115.297l9.415-9.887v-441.856c-71.931 51.468-159.027 86.399-253.42 97.461l-2.58 469.579z" />
<glyph unicode="&#xe907;" glyph-name="pk" d="M384 469.334v42.667c0 70.692-57.308 128-128 128h-42.667c-70.692 0-128-57.308-128-128v-170.667c0-70.692 57.308-128 128-128h42.667c70.692 0 128 57.308 128 128v42.667h341.333v-128h85.333v128h42.667v-85.333h85.333v170.667h-554.667zM298.667 341.334c0-23.564-19.103-42.667-42.667-42.667h-42.667c-23.564 0-42.667 19.103-42.667 42.667v170.667c0 23.564 19.103 42.667 42.667 42.667h42.667c23.564 0 42.667-19.103 42.667-42.667v-170.667z" />
<glyph unicode="&#xe908;" glyph-name="fk" d="M896 386.176l40.491 40.491-40.491 40.491v2.176h-2.176l-138.325 138.325-60.331-60.331 77.995-77.995h-389.163v42.667c0 70.692-57.308 128-128 128h-42.667c-70.692 0-128-57.308-128-128v-170.667c0-70.692 57.308-128 128-128h42.667c70.692 0 128 57.308 128 128v42.667h389.163l-77.995-77.995 60.331-60.331 138.325 138.325h2.176v2.176zM298.667 341.334c0-23.564-19.103-42.667-42.667-42.667h-42.667c-23.564 0-42.667 19.103-42.667 42.667v170.667c0 23.564 19.103 42.667 42.667 42.667h42.667c23.564 0 42.667-19.103 42.667-42.667v-170.667z" />
<glyph unicode="&#xe909;" glyph-name="inter" d="M0 862.976v-115.2c79.223-83.506 127.959-196.612 128-321.101-0.030-124.521-48.767-237.644-128.195-321.367l0.195-114.993c130.282 102.18 213.238 259.569 213.333 436.336-0.109 176.783-83.062 334.153-212.132 435.417zM1024 105.558c-79.237 83.494-127.97 196.611-127.97 321.109s48.733 237.615 128.163 321.315l-0.193 114.995c-130.349-102.1-213.336-259.503-213.336-436.288s82.986-334.188 212.129-435.377l1.207 114.289zM524.501 499.499l60.331-60.331 200.832 200.832-200.832 200.832-60.331-60.331 97.835-97.835h-323.669v-85.333h323.669l-97.835-97.835zM499.499 353.835l-60.331 60.331-200.832-200.832 200.832-200.832 60.331 60.331-97.835 97.835h323.669v85.333h-323.669l97.835 97.835z" />
<glyph unicode="&#xe90a;" glyph-name="inter-in" d="M725.333 426.667c0.123-176.751 83.073-334.103 212.132-435.358l1.202 114.292c-79.225 83.492-127.949 196.6-127.949 321.088s48.724 237.596 128.143 321.293l-0.193 114.995c-130.271-102.172-213.224-259.542-213.333-436.291zM396.501 567.168l97.835-97.835h-409.003v-85.333h409.003l-97.835-97.835 60.331-60.331 200.832 200.832-200.832 200.832-60.331-60.331z" />
<glyph unicode="&#xe90b;" glyph-name="inter-out" d="M755.499 627.499l-60.331-60.331 97.835-97.835h-409.003v-85.333h409.003l-97.835-97.835 60.331-60.331 200.832 200.832-200.832 200.832zM85.333 862.976v-115.2c79.223-83.506 127.959-196.612 128-321.101-0.030-124.521-48.767-237.644-128.195-321.367l0.195-114.993c130.282 102.18 213.238 259.569 213.333 436.336-0.109 176.783-83.062 334.153-212.132 435.417z" />
<glyph unicode="&#xe90c;" glyph-name="dataprocessing" d="M896 853.334h-768c-21.333 0-42.667-21.333-42.667-42.667v-768c0-21.333 21.333-42.667 42.667-42.667h768c21.333 0 42.667 21.333 42.667 42.667v768c0 21.333-21.333 42.667-42.667 42.667zM170.667 554.667h213.333c0-21.333 21.333-42.667 42.667-42.667h68.267l42.667-42.667h-366.933v85.333zM170.667 384h238.933l-42.667-42.667h-68.267c-21.333 0-42.667-21.333-42.667-42.667h-85.333v85.333zM853.333 85.334h-682.667v128h85.333c0-21.333 21.333-42.667 42.667-42.667h85.333c21.333 0 42.667 21.333 42.667 42.667v68.267l102.4 102.4h196.267v-42.667l85.333 85.333-85.333 85.333v-42.667h-68.267l-102.4 102.4v68.267c0 21.333-21.333 42.667-42.667 42.667h-85.333c-21.333 0-42.667-21.333-42.667-42.667h-213.333v128h682.667v-682.667z" />
<glyph unicode="&#xe90d;" glyph-name="processItem" d="M896 853.334h-768c-21.333 0-42.667-21.333-42.667-42.667v-768c0-21.333 21.333-42.667 42.667-42.667h768c21.333 0 42.667 21.333 42.667 42.667v768c0 21.333-21.333 42.667-42.667 42.667zM853.333 85.334h-682.667v298.667h170.667v-42.667c0-21.333 21.333-42.667 42.667-42.667h170.667c21.333 0 42.667 21.333 42.667 42.667v42.667h128v-42.667l85.333 85.333-85.333 85.333v-42.667h-128v42.667c0 21.333-21.333 42.667-42.667 42.667h-170.667c-21.333 0-42.667-21.333-42.667-42.667v-42.667h-170.667v298.667h682.667v-682.667zM426.667 384v85.333h85.333v-85.333h-85.333z" />
<glyph unicode="&#xe90e;" glyph-name="term" d="M384 853.334v-85.333h-85.333c-72.533 0-128-55.467-128-128v-85.333h-85.333v85.333c0 119.467 93.867 213.333 213.333 213.333h85.333zM938.667 640v-85.333h-85.333v85.333c0 72.533-55.467 128-128 128h-85.333v85.333h85.333c119.467 0 213.333-93.867 213.333-213.333zM938.667 298.667v-85.333c0-119.467-93.867-213.333-213.333-213.333h-85.333v85.333h85.333c72.533 0 128 59.733 128 128v85.333h85.333zM384 85.334v-85.333h-85.333c-119.467 0-213.333 93.867-213.333 213.333v85.333h85.333v-85.333c0-68.267 55.467-128 128-128h85.333zM298.667 640h256v-85.333h-256v85.333zM298.667 469.334h426.667v-85.333h-426.667v85.333zM298.667 298.667h426.667v-85.333h-426.667v85.333z" />
<glyph unicode="&#xe90f;" glyph-name="indicator" d="M384 853.334v-85.333h-85.333c-72.533 0-128-55.467-128-128v-85.333h-85.333v85.333c0 119.467 93.867 213.333 213.333 213.333h85.333zM938.667 640v-85.333h-85.333v85.333c0 72.533-55.467 128-128 128h-85.333v85.333h85.333c119.467 0 213.333-93.867 213.333-213.333zM938.667 298.667v-85.333c0-119.467-93.867-213.333-213.333-213.333h-85.333v85.333h85.333c72.533 0 128 59.733 128 128v85.333h85.333zM384 85.334v-85.333h-85.333c-119.467 0-213.333 93.867-213.333 213.333v85.333h85.333v-85.333c0-68.267 55.467-128 128-128h85.333zM755.2 524.8l-128-128c-38.4-38.4-106.667-38.4-145.067 0-8.533 8.533-17.067 8.533-25.6 0l-128-128c-8.533-8.533-17.067-12.8-29.867-12.8s-21.333 4.267-29.867 12.8c-17.067 17.067-17.067 42.667 0 59.733l128 128c38.4 38.4 106.667 38.4 145.067 0 8.533-8.533 17.067-8.533 25.6 0l128 128c17.067 17.067 42.667 17.067 59.733 0s17.067-42.667 0-59.733z" />
<glyph unicode="&#xe910;" glyph-name="diagram-norel" d="M341.333 585.43v-601.984l597.333 199.125v601.984zM853.333 244.096l-426.667-142.208v422.016l426.667 142.208v-422.059zM170.667 609.238l512 170.709v89.941l-597.333-199.125v-601.984l170.667 56.917v89.941l-85.333-28.416v422.016z" />
<glyph unicode="&#xe911;" glyph-name="diagram-rel" d="M938.667 853.334h-384v-384h170.667v-85.333c0-94.257-76.41-170.667-170.667-170.667h-85.333v170.667h-170.667v85.333h170.667v384h-384v-384h128v-85.333h-128v-384h384v128h85.333c141.316 0.17 255.83 114.683 256 255.983v85.35h128v384zM170.667 554.667v213.333h213.333v-213.333h-213.333zM384 85.334h-213.333v213.333h213.333v-213.333zM853.333 554.667h-213.333v213.333h213.333v-213.333z" />
<glyph unicode="&#xe912;" glyph-name="concept" d="M938.667 640v-85.333h-85.333v85.333c0 72.533-55.467 128-128 128h-426.667c-72.533 0-128-55.467-128-128v-85.333h-85.333v85.333c0 119.467 93.867 213.333 213.333 213.333h426.667c119.467 0 213.333-93.867 213.333-213.333zM938.667 298.667v-85.333c0-119.467-93.867-213.333-213.333-213.333h-426.667c-119.467 0-213.333 93.867-213.333 213.333v85.333h85.333v-85.333c0-68.267 55.467-128 128-128h426.667c72.533 0 128 59.733 128 128v85.333h85.333z" />
<glyph unicode="&#xe913;" glyph-name="plus-circle" d="M512 896c-259.206 0-469.333-210.128-469.333-469.333s210.128-469.333 469.333-469.333c259.206 0 469.333 210.128 469.333 469.333s-210.128 469.333-469.333 469.333zM512 42.667c-212.077 0-384 171.923-384 384s171.923 384 384 384c212.077 0 384-171.923 384-384-0.243-211.98-172.021-383.758-383.977-384zM554.667 640h-85.333v-170.667h-170.667v-85.333h170.667v-170.667h85.333v170.667h170.667v85.333h-170.667v170.667z" />
<glyph unicode="&#xe914;" glyph-name="plus-circle-small" d="M512 853.334c-235.641 0-426.667-191.025-426.667-426.667s191.025-426.667 426.667-426.667c235.641 0 426.667 191.025 426.667 426.667s-191.025 426.667-426.667 426.667zM512 85.334c-188.513 0-341.333 152.82-341.333 341.333s152.82 341.333 341.333 341.333c188.513 0 341.333-152.82 341.333-341.333-0.218-188.425-152.908-341.115-341.312-341.333zM554.667 640h-85.333v-170.667h-170.667v-85.333h170.667v-170.667h85.333v170.667h170.667v85.333h-170.667v170.667z" />
<glyph unicode="&#xe915;" glyph-name="minus" d="M128 469.334h768v-85.333h-768v85.333z" />
<glyph unicode="&#xe916;" glyph-name="minus-circle" d="M512 896c-259.206 0-469.333-210.128-469.333-469.333s210.128-469.333 469.333-469.333c259.206 0 469.333 210.128 469.333 469.333s-210.128 469.333-469.333 469.333zM512 42.667c-212.077 0-384 171.923-384 384s171.923 384 384 384c212.077 0 384-171.923 384-384-0.243-211.98-172.021-383.758-383.977-384zM298.667 469.334h426.667v-85.333h-426.667v85.333z" />
<glyph unicode="&#xe917;" glyph-name="minus-circle-small" d="M512 853.334c-235.641 0-426.667-191.025-426.667-426.667s191.025-426.667 426.667-426.667c235.641 0 426.667 191.025 426.667 426.667s-191.025 426.667-426.667 426.667zM512 85.334c-188.513 0-341.333 152.82-341.333 341.333s152.82 341.333 341.333 341.333c188.513 0 341.333-152.82 341.333-341.333-0.218-188.425-152.908-341.115-341.312-341.333zM298.667 469.334h426.667v-85.333h-426.667v85.333z" />
<glyph unicode="&#xe918;" glyph-name="close-circle" d="M512 896c-259.206 0-469.333-210.128-469.333-469.333s210.128-469.333 469.333-469.333c259.206 0 469.333 210.128 469.333 469.333s-210.128 469.333-469.333 469.333zM512 42.667c-212.077 0-384 171.923-384 384s171.923 384 384 384c212.077 0 384-171.923 384-384-0.243-211.98-172.021-383.758-383.977-384zM632.661 607.702l-120.661-120.704-120.661 120.704-60.331-60.331 120.661-120.704-120.661-120.704 60.331-60.331 120.661 120.704 120.661-120.704 60.331 60.331-120.661 120.704 120.661 120.704-60.331 60.331z" />
<glyph unicode="&#xe919;" glyph-name="close-circle-small" d="M512 853.334c-235.641 0-426.667-191.025-426.667-426.667s191.025-426.667 426.667-426.667c235.641 0 426.667 191.025 426.667 426.667s-191.025 426.667-426.667 426.667zM512 85.334c-188.513 0-341.333 152.82-341.333 341.333s152.82 341.333 341.333 341.333c188.513 0 341.333-152.82 341.333-341.333-0.218-188.425-152.908-341.115-341.312-341.333zM632.661 607.702l-120.661-120.704-120.661 120.704-60.331-60.331 120.661-120.704-120.661-120.704 60.331-60.331 120.661 120.704 120.661-120.704 60.331 60.331-120.661 120.704 120.661 120.704-60.331 60.331z" />
<glyph unicode="&#xe91a;" glyph-name="show" d="M512 256c94.257 0 170.667 76.41 170.667 170.667s-76.41 170.667-170.667 170.667c-94.257 0-170.667-76.41-170.667-170.667s76.41-170.667 170.667-170.667zM512 512c47.128 0 85.333-38.205 85.333-85.333s-38.205-85.333-85.333-85.333c-47.128 0-85.333 38.205-85.333 85.333s38.205 85.333 85.333 85.333zM512 128c311.979 0 422.784 280.619 423.893 283.435l5.76 15.232-5.803 15.232c-1.067 2.816-111.872 283.435-423.851 283.435s-422.784-280.619-423.893-283.435l-5.76-15.232 5.803-15.232c1.067-2.816 111.872-283.435 423.851-283.435zM512 640c0.393 0.001 0.857 0.002 1.321 0.002 147.678 0 275.214-86.238 334.995-211.101-60.365-129.387-188.277-215.562-336.317-215.562s-275.951 86.175-336.309 211.098c60.578 129.194 188.356 215.254 336.267 215.563z" />
<glyph unicode="&#xe91b;" glyph-name="link-broken" d="M693.035 788.694v0c-49.92 49.92-131.115 49.877-181.035 0l-150.827-150.869 60.331-60.331 150.827 150.869c16.597 16.597 43.691 16.597 60.373 0l60.331 60.331zM813.696 547.371c16.64-16.64 16.64-43.733 0-60.373l-150.869-150.869 60.331-60.331 150.869 150.869c49.877 49.835 49.877 131.072 0 181.035l-60.331-60.331zM149.973 245.632l60.331 60.331c-16.64 16.683-16.64 43.691 0 60.373l150.827 150.784-60.331 60.373-150.827-150.827c-49.92-49.92-49.92-131.115 0-181.035v0zM602.539 275.798l-150.869-150.827c-16.597-16.597-43.691-16.64-60.373 0l-60.331-60.373c24.96-24.917 57.728-37.376 90.496-37.376 32.811 0 65.579 12.459 90.539 37.376l150.869 150.827-60.331 60.373zM843.865 818.842l60.339-60.339-301.696-301.696-60.339 60.339 301.696 301.696zM421.492 396.497l60.339-60.339-301.696-301.696-60.339 60.339 301.696 301.696zM843.861 318.464h120.661v-85.333h-120.661v85.333zM620.203 94.806h85.333v-120.661h-85.333v120.661zM318.464 879.19h85.333v-120.661h-85.333v120.661zM59.477 620.203h120.661v-85.333h-120.661v85.333z" />
<glyph unicode="&#xe91c;" glyph-name="team-share" d="M810.667 213.334c-27.487-0.167-53.668-5.557-77.665-15.225-53.29 62.004-132.644 100.555-221.001 100.555s-167.711-38.55-222.159-99.749c-22.84 8.863-49.021 14.253-76.441 14.419-117.829-0.145-213.255-95.571-213.4-213.319l85.333-0.014c-0.001 0.203-0.002 0.444-0.002 0.685 0 70.315 57.002 127.317 127.317 127.317 10.061 0 19.85-1.167 29.238-3.373-18.303-36.409-28.508-79.322-28.553-124.614l85.333-0.016c0 117.821 95.513 213.333 213.333 213.333s213.333-95.513 213.333-213.333h85.333c-0.045 45.307-10.25 88.22-28.458 126.598 9.293 0.237 19.082 1.404 29.143 1.404 70.315 0 127.317-57.002 127.317-127.317 0-0.241-0.001-0.482-0.002-0.722l85.333 0.037c-0.146 117.762-95.571 213.188-213.319 213.333zM725.333 341.334c0-70.692 57.308-128 128-128s128 57.308 128 128c0 70.692-57.308 128-128 128s-128-57.308-128-128zM853.333 298.667c-23.564 0-42.667 19.103-42.667 42.667s19.103 42.667 42.667 42.667c23.564 0 42.667-19.103 42.667-42.667s-19.103-42.667-42.667-42.667zM170.667 213.334c70.692 0 128 57.308 128 128s-57.308 128-128 128c-70.692 0-128-57.308-128-128s57.308-128 128-128zM170.667 384c23.564 0 42.667-19.103 42.667-42.667s-19.103-42.667-42.667-42.667c-23.564 0-42.667 19.103-42.667 42.667s19.103 42.667 42.667 42.667zM682.667 469.334c0 94.257-76.41 170.667-170.667 170.667s-170.667-76.41-170.667-170.667c0-94.257 76.41-170.667 170.667-170.667s170.667 76.41 170.667 170.667zM512 384c-47.128 0-85.333 38.205-85.333 85.333s38.205 85.333 85.333 85.333c47.128 0 85.333-38.205 85.333-85.333s-38.205-85.333-85.333-85.333zM846.933 712.832c-84.995 84.807-202.315 137.249-331.883 137.249s-246.888-52.442-331.891-137.258l60.339-60.322c69.545 69.391 165.537 112.3 271.552 112.3s202.008-42.909 271.559-112.307z" />
<glyph unicode="&#xe91d;" glyph-name="notification" d="M365.013 128c29.568-50.773 84.011-85.333 146.987-85.333s117.419 34.56 146.987 85.333h-293.973zM896 170.667h-768v116.096l29.184 9.685c59.093 19.755 98.816 74.837 98.816 137.131v121.088c0 141.184 114.816 256 256 256s256-114.816 256-256v-121.088c0-62.293 39.723-117.376 98.816-137.131l29.184-9.685v-116.096zM257.493 256h509.056c-52.096 42.752-83.883 107.264-83.883 177.579v121.088c0 94.123-76.544 170.667-170.667 170.667s-170.667-76.544-170.667-170.667v-121.088c0-70.315-31.787-134.827-83.84-177.579z" />
<glyph unicode="&#xe91e;" glyph-name="unlock" d="M725.333 469.334h-341.333v170.667c0 70.571 57.429 128 128 128s128-57.429 128-128v-42.667h85.333v42.667c0 117.632-95.701 213.333-213.333 213.333s-213.333-95.701-213.333-213.333v-170.667c-47.104 0-85.333-38.229-85.333-85.333v-298.667c0-47.061 38.229-85.333 85.333-85.333h426.667c47.104 0 85.333 38.272 85.333 85.333v298.667c0 47.104-38.229 85.333-85.333 85.333zM298.667 85.334v298.667h426.667l0.085-298.667h-426.752zM576 234.667c0-35.346-28.654-64-64-64s-64 28.654-64 64c0 35.346 28.654 64 64 64s64-28.654 64-64z" />
<glyph unicode="&#xe91f;" glyph-name="lock2" d="M853.333 255.958v85.333h-42.667v85.333c0 31.445-17.28 58.667-42.667 73.472v97.195c0 141.184-114.816 256-256 256s-256-114.816-256-256v-97.195c-25.387-14.805-42.667-41.984-42.667-73.472v-341.333c0-47.061 38.229-85.333 85.333-85.333h426.667c47.104 0 85.333 38.272 85.333 85.333v42.667h42.667v85.333h-42.667v42.667h42.667zM512 767.958c94.080 0 170.667-76.587 170.667-170.667v-85.333h-341.333v85.333c0 94.080 76.587 170.667 170.667 170.667zM725.248 213.291h-85.248v-85.333h85.248l-0.043-42.667h-426.539v341.333h426.667l-0.043-85.333h-85.291v-85.333h85.248v-42.667z" />
<glyph unicode="&#xe920;" glyph-name="unlock2" d="M853.333 255.958v85.333h-42.667v85.333c0 31.445-17.28 58.667-42.667 73.472v97.195c0 141.184-114.816 256-256 256s-256-114.816-256-256h85.333c0 94.080 76.587 170.667 170.667 170.667s170.667-76.587 170.667-170.667v-85.333h-384c-47.104 0-85.333-38.229-85.333-85.333v-341.333c0-47.061 38.229-85.333 85.333-85.333h426.667c47.104 0 85.333 38.272 85.333 85.333v42.667h42.667v85.333h-42.667v42.667h42.667zM725.248 213.291h-85.248v-85.333h85.248l-0.043-42.667h-426.539v341.333h426.667l-0.043-85.333h-85.291v-85.333h85.248v-42.667z" />
<glyph unicode="&#xe921;" glyph-name="personal-doc" d="M85.333 810.667v-725.333h64.981c11.558 32.581 25.896 60.769 43.323 86.707l-22.971-1.374v554.667h512v-170.667h170.667v-384h-22.101c16.558-24.565 30.895-52.752 41.617-82.661l65.817-2.672v572.331l-153.003 153.003h-700.331zM768 707.67l67.669-67.669h-67.669v67.669zM512 597.334c-94.257 0-170.667-76.41-170.667-170.667s76.41-170.667 170.667-170.667c94.257 0 170.667 76.41 170.667 170.667s-76.41 170.667-170.667 170.667zM426.667 426.667c0 47.128 38.205 85.333 85.333 85.333s85.333-38.205 85.333-85.333c0-47.128-38.205-85.333-85.333-85.333s-85.333 38.205-85.333 85.333zM512 256c-164.871-0.194-298.473-133.796-298.667-298.648l85.333-0.018c0 117.821 95.513 213.333 213.333 213.333s213.333-95.513 213.333-213.333h85.333c-0.194 164.871-133.796 298.473-298.648 298.667z" />
<glyph unicode="&#xe922;" glyph-name="team-doc" d="M917.675 140.8c62.868 25.833 106.329 86.591 106.329 157.5 0 62.698-33.979 117.46-84.527 146.875l-0.81 255.155-153.003 153.003h-700.331v-407.723c-51.358-29.85-85.337-84.612-85.337-147.31 0-70.909 43.462-131.667 105.2-157.088-62.685-37.749-104.932-105.85-105.196-183.84l85.333-0.038c-0.001 0.203-0.002 0.444-0.002 0.685 0 70.315 57.002 127.317 127.317 127.317 10.061 0 19.85-1.167 29.238-3.373-18.303-36.409-28.508-79.322-28.553-124.614l85.333-0.016c0 117.821 95.513 213.333 213.333 213.333s213.333-95.513 213.333-213.333h85.333c-0.045 45.307-10.25 88.22-28.458 126.598 9.293 0.237 19.082 1.404 29.143 1.404 70.315 0 127.317-57.002 127.317-127.317 0-0.241-0.001-0.482-0.002-0.722l85.333 0.037c-0.263 78.028-42.51 146.13-105.322 182.923zM853.333 213.334c-47.128 0-85.333 38.205-85.333 85.333s38.205 85.333 85.333 85.333c47.128 0 85.333-38.205 85.333-85.333s-38.205-85.333-85.333-85.333zM835.669 682.667h-67.669v67.669zM170.667 768h512v-170.667h170.667v-128c-0.134 0-0.294 0.001-0.453 0.001-93.997 0-170.197-76.2-170.197-170.197 0-56.293 27.329-106.202 69.443-137.184-5.673-2.080-11.817-3.701-17.705-6.005-54.71 61.499-134.064 100.049-222.421 100.049s-167.711-38.55-222.159-99.749c-6.15 1.961-12.337 3.625-18.438 5.374 42.585 31.313 69.914 81.223 69.914 137.515 0 93.997-76.2 170.197-170.197 170.197-0.159 0-0.318 0-0.478-0.001l0.025 298.667zM170.667 384c47.128 0 85.333-38.205 85.333-85.333s-38.205-85.333-85.333-85.333c-47.128 0-85.333 38.205-85.333 85.333s38.205 85.333 85.333 85.333zM682.667 426.667c0 94.257-76.41 170.667-170.667 170.667s-170.667-76.41-170.667-170.667c0-94.257 76.41-170.667 170.667-170.667s170.667 76.41 170.667 170.667zM512 341.334c-47.128 0-85.333 38.205-85.333 85.333s38.205 85.333 85.333 85.333c47.128 0 85.333-38.205 85.333-85.333s-38.205-85.333-85.333-85.333z" />
<glyph unicode="&#xe923;" glyph-name="personal-doc2" d="M512 298.667c-164.871-0.194-298.473-133.796-298.667-298.648l85.333-0.018c0 117.821 95.513 213.333 213.333 213.333s213.333-95.513 213.333-213.333h85.333c-0.194 164.871-133.796 298.473-298.648 298.667zM512 298.667c0.622-0.008 1.355-0.013 2.090-0.013 95.435 0 172.8 77.365 172.8 172.8s-77.365 172.8-172.8 172.8c-95.435 0-172.8-77.365-172.8-172.8 0-42.287 15.189-81.026 40.41-111.059 31.001-37.564 77.831-61.545 130.269-61.729zM426.667 469.334c0 47.128 38.205 85.333 85.333 85.333s85.333-38.205 85.333-85.333c0-47.128-38.205-85.333-85.333-85.333s-85.333 38.205-85.333 85.333zM170.667 768h42.667v85.333h-128v-853.333h85.333v768zM810.667 768h42.667v-768h85.333v853.333h-128v-85.333z" />
<glyph unicode="&#xe924;" glyph-name="reference-doc" d="M938.667 657.664l-153.003 153.003h-145.664v-85.333h42.667v-170.667h170.667v-384h-682.667v554.667h42.667v85.333h-128v-725.333h853.333v572.331zM768 707.67l67.669-67.669h-67.669v67.669zM256 384v-37.077l170.667 113.877 170.667-113.792v506.325h-341.333v-469.333zM512 768v-261.589l-85.333 56.789-85.333-56.789v261.589h170.667z" />
<glyph unicode="&#xe925;" glyph-name="glyph_dddg" d="M938.667 85.334h-320.597l-213.333 298.667h-319.403v85.333h363.307l213.333-298.667h276.693v-85.333zM183.168 268.502l-158.165 158.165 158.165 158.165 60.331-60.331-97.835-97.835 97.835-97.835-60.331-60.331zM298.667 469.334h640v-85.333h-640v85.333zM461.397 401.878l-69.419 49.579 226.091 316.544h320.597v-85.333h-276.693l-200.576-280.789z" />
<glyph unicode="&#xe926;" glyph-name="visual-analysis" d="M853.333 213.334c47.128 0 85.333-38.205 85.333-85.333s-38.205-85.333-85.333-85.333c-47.128 0-85.333 38.205-85.333 85.333s38.205 85.333 85.333 85.333zM853.333 298.667c-94.257 0-170.667-76.41-170.667-170.667v0c0-94.257 76.41-170.667 170.667-170.667s170.667 76.41 170.667 170.667v0c0 94.257-76.41 170.667-170.667 170.667v0zM853.333 810.667c47.128 0 85.333-38.205 85.333-85.333s-38.205-85.333-85.333-85.333c-47.128 0-85.333 38.205-85.333 85.333s38.205 85.333 85.333 85.333zM853.333 896c-94.257 0-170.667-76.41-170.667-170.667v0c0-94.257 76.41-170.667 170.667-170.667s170.667 76.41 170.667 170.667v0c0 94.257-76.41 170.667-170.667 170.667v0zM512 554.667c70.692 0 128-57.308 128-128s-57.308-128-128-128c-70.692 0-128 57.308-128 128s57.308 128 128 128zM512 640c-117.821 0-213.333-95.513-213.333-213.333v0c0-117.821 95.513-213.333 213.333-213.333s213.333 95.513 213.333 213.333v0c0 117.821-95.513 213.333-213.333 213.333v0zM170.667 682.667c-47.128 0-85.333-38.205-85.333-85.333s38.205-85.333 85.333-85.333c47.128 0 85.333 38.205 85.333 85.333s-38.205 85.333-85.333 85.333v0zM128 298.667c23.564 0 42.667-19.103 42.667-42.667s-19.103-42.667-42.667-42.667c-23.564 0-42.667 19.103-42.667 42.667s19.103 42.667 42.667 42.667zM128 384c-70.692 0-128-57.308-128-128s57.308-128 128-128c70.692 0 128 57.308 128 128s-57.308 128-128 128v0zM191.236 324.9l152.307 56.452 29.672-80.054-152.307-56.452-29.672 80.054zM613.674 281.022l56.166 64.187 114.053-99.8-56.166-64.187-114.053 99.8zM609.523 565.828l125.211 106.657 55.335-64.96-125.211-106.657-55.335 64.96z" />
<glyph unicode="&#xe927;" glyph-name="glyph_ddg" d="M614.997 384h-444.331v85.333h409.003l286.165 286.165 60.331-60.331-311.168-311.168zM268.501 225.835l-200.832 200.832 200.832 200.832 60.331-60.331-140.501-140.501 140.501-140.501-60.331-60.331zM652.472 311.187l60.34 60.34 213.331-213.331-60.34-60.34-213.331 213.331z" />
<glyph unicode="&#xe928;" glyph-name="glyph_ddg2" d="M529.664 384h-358.997v85.333h323.669l158.165 158.165 60.331-60.331-183.168-183.168zM268.501 225.835l-200.832 200.832 200.832 200.832 60.331-60.331-140.501-140.501 140.501-140.501-60.331-60.331zM481.843 396.484l60.34 60.34 170.671-170.671-60.34-60.34-170.671 170.671zM768 768c47.128 0 85.333-38.205 85.333-85.333s-38.205-85.333-85.333-85.333c-47.128 0-85.333 38.205-85.333 85.333s38.205 85.333 85.333 85.333zM768 853.334c-94.257 0-170.667-76.41-170.667-170.667s76.41-170.667 170.667-170.667c94.257 0 170.667 76.41 170.667 170.667s-76.41 170.667-170.667 170.667v0zM768 256c47.128 0 85.333-38.205 85.333-85.333s-38.205-85.333-85.333-85.333c-47.128 0-85.333 38.205-85.333 85.333s38.205 85.333 85.333 85.333zM768 341.334c-94.257 0-170.667-76.41-170.667-170.667s76.41-170.667 170.667-170.667c94.257 0 170.667 76.41 170.667 170.667s-76.41 170.667-170.667 170.667v0z" />
<glyph unicode="&#xe929;" glyph-name="glyph_dgg" d="M200.832 97.835l-60.331 60.331 311.168 311.168h486.997v-85.333h-451.669l-286.165-286.165zM140.504 695.173l60.34 60.34 213.331-213.331-60.34-60.34-213.331 213.331zM341.333 42.667h-256v256h85.333v-170.667h170.667v-85.333zM170.667 554.667h-85.333v256h256v-85.333h-170.667v-170.667z" />
<glyph unicode="&#xe92a;" glyph-name="glyph_dgg2" d="M200.832 97.835l-60.331 60.331 311.168 311.168h188.331v-85.333h-153.003l-286.165-286.165zM140.477 695.167l60.34 60.34 298.652-298.652-60.34-60.34-298.652 298.652zM341.333 42.667h-256v256h85.333v-170.667h170.667v-85.333zM170.667 554.667h-85.333v256h256v-85.333h-170.667v-170.667zM768 512c47.128 0 85.333-38.205 85.333-85.333s-38.205-85.333-85.333-85.333c-47.128 0-85.333 38.205-85.333 85.333s38.205 85.333 85.333 85.333zM768 597.334c-94.257 0-170.667-76.41-170.667-170.667s76.41-170.667 170.667-170.667c94.257 0 170.667 76.41 170.667 170.667s-76.41 170.667-170.667 170.667v0z" />
<glyph unicode="&#xe92b;" glyph-name="glyph_dggg" d="M938.667 384h-235.264l-213.333 298.667h-276.736v85.333h320.64l213.333-298.667h191.36v-85.333zM311.168 567.168l-158.165 158.165 158.165 158.165 60.331-60.331-97.835-97.835 97.835-97.835-60.331-60.331zM183.168 268.502l-158.165 158.165 158.165 158.165 60.331-60.331-97.835-97.835 97.835-97.835-60.331-60.331zM311.168-30.165l-158.165 158.165 158.165 158.165 60.331-60.331-97.835-97.835 97.835-97.835-60.331-60.331zM128 469.334h597.333v-85.333h-597.333v85.333zM533.973 85.334h-320.64v85.333h276.736l200.576 280.789 69.419-49.579-226.091-316.544z" />
<glyph unicode="&#xe92c;" glyph-name="glyph_gdd" d="M572.331 384h-486.997v85.333h451.669l286.165 286.165 60.331-60.331-311.168-311.168zM609.8 311.182l60.34 60.34 213.331-213.331-60.34-60.34-213.331 213.331zM938.667 554.667h-85.333v170.667h-170.667v85.333h256v-256zM938.667 42.667h-256v85.333h170.667v170.667h85.333v-256z" />
<glyph unicode="&#xe92d;" glyph-name="glyph_gdd2" d="M572.331 384h-188.331v85.333h153.003l286.165 286.165 60.331-60.331-311.168-311.168zM524.507 396.509l60.34 60.34 298.652-298.652-60.34-60.34-298.652 298.652zM938.667 554.667h-85.333v170.667h-170.667v85.333h256v-256zM938.667 42.667h-256v85.333h170.667v170.667h85.333v-256zM256 512c47.128 0 85.333-38.205 85.333-85.333s-38.205-85.333-85.333-85.333c-47.128 0-85.333 38.205-85.333 85.333s38.205 85.333 85.333 85.333zM256 597.334c-94.257 0-170.667-76.41-170.667-170.667s76.41-170.667 170.667-170.667c94.257 0 170.667 76.41 170.667 170.667s-76.41 170.667-170.667 170.667v0z" />
<glyph unicode="&#xe92e;" glyph-name="glyph_gddd" d="M810.667 85.334h-320.597l-213.333 298.667h-191.403v85.333h235.307l213.333-298.667h276.693v-85.333zM712.832-30.165l-60.331 60.331 97.835 97.835-97.835 97.835 60.331 60.331 158.165-158.165-158.165-158.165zM840.832 268.502l-60.331 60.331 97.835 97.835-97.835 97.835 60.331 60.331 158.165-158.165-158.165-158.165zM712.832 567.168l-60.331 60.331 97.835 97.835-97.835 97.835 60.331 60.331 158.165-158.165-158.165-158.165zM298.667 469.334h597.333v-85.333h-597.333v85.333zM333.397 401.878l-69.419 49.579 226.091 316.544h320.597v-85.333h-276.693l-200.576-280.789z" />
<glyph unicode="&#xe92f;" glyph-name="glyph_ggd" d="M158.165 97.835l-60.331 60.331 311.168 311.168h444.331v-85.333h-409.003l-286.165-286.165zM755.499 225.835l-60.331 60.331 140.501 140.501-140.501 140.501 60.331 60.331 200.832-200.832-200.832-200.832zM97.833 695.169l60.34 60.34 213.331-213.331-60.34-60.34-213.331 213.331z" />
<glyph unicode="&#xe930;" glyph-name="glyph_ggd2" d="M371.499 225.835l-60.331 60.331 183.168 183.168h358.997v-85.333h-323.669l-158.165-158.165zM755.499 225.835l-60.331 60.331 140.501 140.501-140.501 140.501 60.331 60.331 200.832-200.832-200.832-200.832zM311.182 567.151l60.34 60.34 170.671-170.671-60.34-60.34-170.671 170.671zM256 256c47.128 0 85.333-38.205 85.333-85.333s-38.205-85.333-85.333-85.333c-47.128 0-85.333 38.205-85.333 85.333s38.205 85.333 85.333 85.333zM256 341.334c-94.257 0-170.667-76.41-170.667-170.667s76.41-170.667 170.667-170.667c94.257 0 170.667 76.41 170.667 170.667s-76.41 170.667-170.667 170.667v0zM256 768c47.128 0 85.333-38.205 85.333-85.333s-38.205-85.333-85.333-85.333c-47.128 0-85.333 38.205-85.333 85.333s38.205 85.333 85.333 85.333zM256 853.334c-94.257 0-170.667-76.41-170.667-170.667s76.41-170.667 170.667-170.667c94.257 0 170.667 76.41 170.667 170.667s-76.41 170.667-170.667 170.667v0z" />
<glyph unicode="&#xe931;" glyph-name="glyph_gggd" d="M938.667 384h-363.264l-213.333 298.667h-276.736v85.333h320.64l213.333-298.667h319.36v-85.333zM840.832 268.502l-60.331 60.331 97.835 97.835-97.835 97.835 60.331 60.331 158.165-158.165-158.165-158.165zM85.333 469.334h640v-85.333h-640v85.333zM405.973 85.334h-320.64v85.333h276.736l200.576 280.789 69.419-49.579-226.091-316.544z" />
<glyph unicode="&#xe932;" glyph-name="software-application" d="M810.667 938.667h-682.667c-72.533 0-128-55.467-128-128v-512c0-68.267 55.467-128 128-128h298.667v85.333h-298.667c-21.333 0-42.667 21.333-42.667 42.667v384h768v-85.333h85.333v213.333c0 72.533-55.467 128-128 128zM853.333 768h-768v42.667c0 21.333 21.333 42.667 42.667 42.667h682.667c21.333 0 42.667-21.333 42.667-42.667v-42.667zM938.667 503.467c-12.8 4.267-29.867 8.533-42.667 8.533h-256c-72.533 0-128-55.467-128-128v-341.333c0-68.267 55.467-128 128-128h256c72.533 0 128 59.733 128 128v341.333c0 55.467-34.133 102.4-85.333 119.467zM938.667 42.667c0-21.333-21.333-42.667-42.667-42.667h-256c-21.333 0-42.667 21.333-42.667 42.667v341.333c0 21.333 21.333 42.667 42.667 42.667h256c21.333 0 42.667-21.333 42.667-42.667v-341.333zM725.333 170.667h85.333v-85.333h-85.333v85.333z" />
<glyph unicode="&#xe933;" glyph-name="software" d="M908.8 213.334c-4.267 4.267-8.533 8.533-17.067 8.533 29.867 34.133 46.933 72.533 46.933 119.467 0 64-34.133 119.467-85.333 149.333-25.6 12.8-55.467 21.333-85.333 21.333-93.867 0-170.667-76.8-170.667-170.667 0-29.867 8.533-59.733 21.333-85.333 8.533-12.8 12.8-21.333 25.6-34.133-25.6-12.8-46.933-34.133-68.267-51.2-42.667-46.933-64-106.667-64-170.667v-85.333h85.333v85.333c0 93.867 76.8 170.667 170.667 170.667s170.667-76.8 170.667-170.667v-85.333h85.333v85.333c0 89.6-46.933 170.667-115.2 213.333zM682.667 341.334c0 46.933 38.4 85.333 85.333 85.333s85.333-38.4 85.333-85.333c0-46.933-38.4-85.333-85.333-85.333s-85.333 38.4-85.333 85.333zM810.667 938.667h-682.667c-72.533 0-128-55.467-128-128v-512c0-68.267 55.467-128 128-128h298.667v85.333h-298.667c-21.333 0-42.667 21.333-42.667 42.667v384h768v-98.133c34.133-8.533 59.733-29.867 85.333-51.2v277.333c0 72.533-55.467 128-128 128zM853.333 768h-768v42.667c0 21.333 21.333 42.667 42.667 42.667h682.667c21.333 0 42.667-21.333 42.667-42.667v-42.667z" />
<glyph unicode="&#xe934;" glyph-name="software-screen" d="M853.333 810.667h-682.667c-72.533 0-128-55.467-128-128v-512c0-68.267 55.467-128 128-128h682.667c72.533 0 128 59.733 128 128v512c0 72.533-55.467 128-128 128zM896 170.667c0-21.333-21.333-42.667-42.667-42.667h-682.667c-21.333 0-42.667 21.333-42.667 42.667v384h768v-384zM896 640h-768v42.667c0 21.333 21.333 42.667 42.667 42.667h682.667c21.333 0 42.667-21.333 42.667-42.667v-42.667zM554.667 469.334h256v-85.333h-256v85.333zM554.667 298.667h256v-85.333h-256v85.333zM213.333 469.334h256v-85.333h-256v85.333zM213.333 298.667h256v-85.333h-256v85.333z" />
<glyph unicode="&#xe935;" glyph-name="software-dashboard" d="M853.333 810.667h-682.667c-72.533 0-128-55.467-128-128v-512c0-68.267 55.467-128 128-128h682.667c72.533 0 128 59.733 128 128v512c0 72.533-55.467 128-128 128zM896 170.667c0-21.333-21.333-42.667-42.667-42.667h-682.667c-21.333 0-42.667 21.333-42.667 42.667v384h768v-384zM896 640h-768v42.667c0 21.333 21.333 42.667 42.667 42.667h682.667c21.333 0 42.667-21.333 42.667-42.667v-42.667zM797.867 439.467l-128-128c-8.533-8.533-17.067-12.8-29.867-12.8h-243.2l-119.467-76.8c-4.267-8.533-12.8-8.533-21.333-8.533-12.8 0-25.6 8.533-34.133 21.333-12.8 21.333-8.533 46.933 12.8 59.733l128 85.333c4.267 0 12.8 4.267 21.333 4.267h238.933l115.2 115.2c17.067 17.067 42.667 17.067 59.733 0s17.067-42.667 0-59.733z" />
<glyph unicode="&#xe936;" glyph-name="domain1" d="M85.333 341.334c0 12.8 4.267 21.333 12.8 29.867l469.333 469.333c8.533 8.533 17.067 12.8 29.867 12.8h298.667c25.6 0 42.667-17.067 42.667-42.667v-298.667c0-12.8-4.267-21.333-12.8-29.867l-469.333-469.333c-17.067-17.067-42.667-17.067-59.733 0l-298.667 298.667c-8.533 8.533-12.8 17.067-12.8 29.867zM614.4 768l-426.667-426.667 238.933-238.933 426.667 426.667v238.933c0 0-238.933 0-238.933 0zM725.333 554.667c-46.933 0-85.333 38.4-85.333 85.333s38.4 85.333 85.333 85.333 85.333-38.4 85.333-85.333-38.4-85.333-85.333-85.333z" />
<glyph unicode="&#xe937;" glyph-name="like-down" d="M576 162.134h-21.333l-132.267 298.667h-81.067v183.467l183.467 76.8h273.067l64-345.6h-285.867v-213.333zM640 55.467c25.6 0 42.667 17.067 42.667 42.667v170.667h256c12.8 0 25.6 4.267 34.133 17.067 8.533 8.533 8.533 21.333 8.533 38.4l-85.333 469.333c-4.267 21.333-21.333 34.133-42.667 34.133h-341.333c-8.533 0-12.8-4.267-17.067-4.267l-153.6-64v21.333c0 25.6-17.067 42.667-42.667 42.667h-170.667c-25.6 0-42.667-17.067-42.667-42.667v-426.667c0-25.6 17.067-42.667 42.667-42.667h170.667c25.6 0 42.667 17.067 42.667 42.667h12.8l119.467-273.067c4.267-17.067 21.333-25.6 38.4-25.6h128z" />
<glyph unicode="&#xe938;" glyph-name="like-up" d="M576 721.067v-213.333h285.867l-64-345.6h-273.067l-183.467 76.8v183.467h81.067l132.267 298.667h21.333zM640 827.734h-128c-17.067 0-34.133-8.533-38.4-25.6l-119.467-273.067h-12.8c0 25.6-17.067 42.667-42.667 42.667h-170.667c-25.6 0-42.667-17.067-42.667-42.667v-426.667c0-25.6 17.067-42.667 42.667-42.667h170.667c25.6 0 42.667 17.067 42.667 42.667v21.333l153.6-64c4.267 0 8.533-4.267 17.067-4.267h341.333c21.333 0 38.4 12.8 42.667 34.133l85.333 469.333c0 17.067 0 29.867-8.533 38.4-8.533 12.8-21.333 17.067-34.133 17.067h-256v170.667c0 25.6-17.067 42.667-42.667 42.667v0z" />
<glyph unicode="&#xe939;" glyph-name="check-circle-filled" d="M512 853.334c-235.641 0-426.667-191.025-426.667-426.667s191.025-426.667 426.667-426.667c235.641 0 426.667 191.025 426.667 426.667v0c0 235.641-191.025 426.667-426.667 426.667v0zM426.667 217.174l-158.293 157.867 60.587 60.587 97.707-98.133 268.373 268.8 60.587-60.587z" />
<glyph unicode="&#xe93a;" glyph-name="close-circle-filled" d="M512 853.334c-235.641 0-426.667-191.025-426.667-426.667s191.025-426.667 426.667-426.667c235.641 0 426.667 191.025 426.667 426.667v0c0 235.641-191.025 426.667-426.667 426.667v0zM692.907 305.92l-60.16-60.16-120.747 120.747-120.747-120.747-60.16 60.16 120.747 120.747-120.747 120.747 60.16 60.16 120.747-120.747 120.747 120.747 60.16-60.16-120.747-120.747z" />
<glyph unicode="&#xe93b;" glyph-name="info-circle-filled" d="M499.2 840.534c-235.641 0-426.667-191.025-426.667-426.667s191.025-426.667 426.667-426.667c235.641 0 426.667 191.025 426.667 426.667v0c0 235.641-191.025 426.667-426.667 426.667v0zM469.333 682.667h85.333v-85.333h-85.333zM597.333 170.667h-170.667v85.333h42.667v170.667h-42.667v85.333h128v-256h42.667z" />
<glyph unicode="&#xe93c;" glyph-name="download" d="M853.333 170.667c0-47.128-38.205-85.333-85.333-85.333v0h-512c-47.128 0-85.333 38.205-85.333 85.333v0 213.333h-85.333v-213.333c0-94.257 76.41-170.667 170.667-170.667v0h512c94.257 0 170.667 76.41 170.667 170.667v0 213.333h-85.333zM469.333 707.84v-409.173h85.333v409.173l140.373-140.8 60.587 60.587-243.627 243.2-243.627-243.2 60.587-60.587 140.373 140.8z" />
<glyph unicode="&#xe93d;" glyph-name="lineage-lvl2" d="M63.147 170.667h896v128h-896v-128zM63.147 341.334h896v341.333h-896v-341.333z" />
<glyph unicode="&#xe93e;" glyph-name="lineage-lvl3" d="M64 464.64h896v344.32h-896v-344.32zM64 50.774v344.747h896v-344.747zM270.933 326.4v-70.4h620.373v70.4zM270.933 188.587v-68.693h620.373v68.693z" />
<glyph unicode="&#xe93f;" glyph-name="lineage-lvl1" d="M42.667 426.667h938.667v128h-938.667v-128zM42.667 213.334h938.667v128h-938.667v-128z" />
<glyph unicode="&#xe940;" glyph-name="versioning" d="M341.332 255.999c-70.69 0-128-57.31-128-128s57.31-128 128-128c70.69 0 128 57.31 128 128 0 70.693-57.31 128-128 128zM341.332 85.336c-23.565 0-42.667 19.102-42.667 42.667s19.102 42.667 42.667 42.667c23.565 0 42.667-19.102 42.667-42.667s-19.102-42.667-42.667-42.667zM341.332 853.335c-70.69 0-128-57.31-128-128s57.31-128 128-128c70.69 0 128 57.31 128 128s-57.31 128-128 128zM341.332 682.668c-23.565 0-42.667 19.102-42.667 42.667s19.102 42.667 42.667 42.667c23.565 0 42.667-19.102 42.667-42.667s-19.102-42.667-42.667-42.667zM682.668 767.998c-70.69 0-128-57.31-128-128s57.31-128 128-128c70.69 0 128 57.31 128 128 0 70.693-57.31 128-128 128zM682.668 597.335c-23.565 0-42.667 19.102-42.667 42.667s19.102 42.667 42.667 42.667c23.565 0 42.667-19.102 42.667-42.667s-19.102-42.667-42.667-42.667zM299.324 666.146h85.333v-495.48h-85.333v495.48zM638.328 597.335v-152.875c0-15.47-14.515-33.938-29.79-37.68l-277.362-67.97 20.31-82.88 277.362 67.97c53.413 13.090 94.81 65.75 94.81 120.562v152.873h-85.333z" />
<glyph unicode="&#xe941;" glyph-name="filter-empty" d="M820.79 896.001c0.292 0.004 0.636 0.006 0.981 0.006 25.593 0 48.71-10.593 65.208-27.635l0.024-0.025c17.071-16.339 27.682-39.308 27.682-64.756 0-0.786-0.011-1.571-0.031-2.352l0.003 0.116v-186.954c-0.023-6.43-1.162-12.585-3.236-18.293l0.12 0.377c-2.391-5.805-5.824-10.738-10.107-14.781l-0.020-0.019-222.009-221.229v-167.87c0.011-0.407 0.019-0.886 0.019-1.367 0-6.225-1.15-12.181-3.248-17.668l0.114 0.34c-2.221-5.908-5.991-10.809-10.818-14.351l-0.087-0.060-187.734-188.123c-4.39-4.175-9.554-7.59-15.245-10l-0.335-0.125c-4.961-2.459-10.806-3.899-16.985-3.899-0.19 0-0.381 0.001-0.57 0.004h-9.319c-3.7 0.972-6.939 2.303-9.943 4.002l0.206-0.107c-8.626 3.567-15.676 9.489-20.537 16.966l-0.104 0.172c-4.88 6.864-7.802 15.416-7.802 24.651 0 0.37 0.005 0.74 0.013 1.11l-0.001-0.055v356.382l-222.009 221.229c-4.237 4.029-7.558 8.979-9.648 14.531l-0.089 0.269c-2.217 5.203-3.507 11.253-3.507 17.608 0 0.109 0 0.217 0.001 0.326v-0.016 186.954c-0.010 0.473-0.013 1.029-0.013 1.588 0 25.648 10.593 48.822 27.645 65.383l0.022 0.021c16.521 17.065 39.639 27.659 65.231 27.659 0.345 0 0.691-0.002 1.034-0.006l-0.053 0.001zM598.782 412.256l222.009 220.84v168.259h-565.148v-168.259l222.009-220.84c4.443-3.74 7.814-8.618 9.672-14.188l0.064-0.223c2.218-5.441 3.507-11.754 3.507-18.366 0-0.116 0-0.231-0.001-0.346v0.017-262.125l94.646 93.477v168.648c-0.002 0.151-0.003 0.329-0.003 0.508 0 12.683 5.052 24.189 13.255 32.61l-0.011-0.011z" />
<glyph unicode="&#xe942;" glyph-name="filter-filled" d="M808.345 896.001c0.292 0.004 0.636 0.006 0.981 0.006 25.593 0 48.71-10.593 65.208-27.635l0.024-0.025c17.071-16.339 27.682-39.308 27.682-64.756 0-0.786-0.011-1.571-0.031-2.352l0.003 0.116v-186.954c-0.023-6.43-1.162-12.585-3.236-18.293l0.12 0.377c-2.391-5.805-5.824-10.738-10.107-14.781l-0.020-0.019-222.009-221.229v-167.87c0.011-0.407 0.019-0.886 0.019-1.367 0-6.225-1.15-12.181-3.248-17.668l0.114 0.34c-2.221-5.908-5.991-10.809-10.818-14.351l-0.087-0.060-187.734-188.123c-4.39-4.175-9.554-7.59-15.245-10l-0.335-0.125c-4.961-2.459-10.806-3.899-16.985-3.899-0.19 0-0.381 0.001-0.57 0.004h-9.319c-3.7 0.972-6.939 2.303-9.943 4.002l0.206-0.107c-8.626 3.567-15.676 9.489-20.537 16.966l-0.104 0.172c-4.88 6.864-7.802 15.416-7.802 24.651 0 0.37 0.005 0.74 0.013 1.11l-0.001-0.055v356.382l-222.009 221.229c-4.237 4.029-7.558 8.979-9.648 14.531l-0.089 0.269c-2.217 5.203-3.507 11.253-3.507 17.608 0 0.109 0 0.217 0.001 0.326v-0.016 186.954c-0.010 0.473-0.013 1.029-0.013 1.588 0 25.648 10.593 48.822 27.645 65.383l0.022 0.021c16.521 17.065 39.639 27.659 65.231 27.659 0.345 0 0.691-0.002 1.034-0.006l-0.053 0.001zM586.337 412.256l222.009 220.84v168.259h-565.148v-168.259l222.009-220.84c4.443-3.74 7.814-8.618 9.672-14.188l0.064-0.223c2.218-5.441 3.507-11.754 3.507-18.366 0-0.116 0-0.231-0.001-0.346v0.017-262.125l94.646 93.477v168.648c-0.002 0.151-0.003 0.329-0.003 0.508 0 12.683 5.052 24.189 13.255 32.61l-0.011-0.011zM302.010 753.448h451.417v-80.624h-451.417v80.624zM382.245 625.695h290.559v-80.624h-290.559v80.624z" />
<glyph unicode="&#xe943;" glyph-name="number" d="M74.453 253.526v71.083h82.432v219.221h-71.083v54.357c20.708 3.982 38.229 8.761 52.565 14.336s28.274 12.345 41.813 20.309h64.512v-308.224h71.083v-71.083h-241.323zM370.133 253.526v50.176c24.292 22.699 46.492 43.904 66.603 63.616s37.433 38.229 51.968 55.552c14.535 17.323 25.884 33.451 34.048 48.384s12.245 29.17 12.245 42.709c0 18.717-4.779 32.953-14.336 42.709s-22.699 14.635-39.424 14.635c-13.938 0-26.283-3.883-37.035-11.648s-20.907-16.825-30.464-27.179l-47.787 47.189c18.717 19.911 37.831 34.944 57.344 45.099s42.809 15.232 69.888 15.232c18.717 0 35.74-2.887 51.072-8.661s28.572-13.938 39.723-24.491c11.15-10.553 19.712-23.196 25.685-37.931s8.96-31.26 8.96-49.579c0-15.929-3.385-32.156-10.155-48.683s-15.829-33.052-27.179-49.579c-11.349-16.526-24.291-33.052-38.827-49.579s-29.568-32.754-45.099-48.683c9.557 1.195 20.21 2.29 31.957 3.285s22.201 1.493 31.36 1.493h76.459v-74.069h-267.008zM808.576 246.358c-31.061 0-57.344 4.878-78.848 14.635s-39.225 22.798-53.163 39.125l40.619 55.552c11.549-11.15 24.192-20.309 37.931-27.477s28.771-10.752 45.099-10.752c18.717 0 33.65 3.883 44.8 11.648s16.725 18.816 16.725 33.152c0 8.363-1.493 15.929-4.48 22.699s-8.263 12.444-15.829 17.024c-7.566 4.58-17.92 8.164-31.061 10.752s-30.066 3.883-50.773 3.883v62.123c17.124 0 31.36 1.195 42.709 3.584s20.508 5.874 27.477 10.453c6.969 4.58 11.947 9.956 14.933 16.128s4.48 13.042 4.48 20.608c0 13.141-3.982 23.396-11.947 30.763s-19.513 11.051-34.645 11.051c-13.54 0-25.785-2.987-36.736-8.96s-22.4-14.137-34.347-24.491l-44.203 53.76c17.522 15.133 35.939 26.98 55.253 35.541s40.718 12.843 64.213 12.843c19.513 0 37.333-2.29 53.461-6.869s29.867-11.349 41.216-20.309c11.349-8.96 20.21-19.811 26.581-32.555s9.557-27.477 9.557-44.203c0-19.911-5.475-36.736-16.427-50.475s-26.581-24.988-46.891-33.749v-2.389c21.902-6.372 39.922-17.223 54.059-32.555s21.205-35.342 21.205-60.032c0-17.522-3.783-33.152-11.349-46.891s-17.721-25.287-30.464-34.645c-12.743-9.358-27.676-16.526-44.8-21.504s-35.243-7.467-54.357-7.467z" />
<glyph unicode="&#xe944;" glyph-name="checkbox" d="M256 170.667h512v512h-512v-512zM170.667 768h682.667v-682.667h-682.667v682.667zM357.224 484.899l-58.557-57.684 189.028-170.929 237.638 309.234-55.421 40.225-182.332-224.024-130.357 103.177z" />
<glyph unicode="&#xe945;" glyph-name="date" d="M853.333 768h-85.333v85.333h-85.333v-85.333h-341.333v85.333h-85.333v-85.333h-85.333c-47.128 0-85.333-38.205-85.333-85.333v0-554.667c0-47.128 38.205-85.333 85.333-85.333v0h682.667c47.128 0 85.333 38.205 85.333 85.333v0 554.667c0 47.128-38.205 85.333-85.333 85.333v0zM170.667 128v469.333h682.667v-469.333zM426.667 374.187v0c31.314 9.721 53.741 38.236 54.186 72.055l0.001 0.052c0 57.173-44.8 89.173-111.787 89.173-39.871-0.953-75.81-17.039-102.447-42.712l0.047 0.045 37.973-46.080c15.27 16.461 36.556 27.157 60.34 28.575l0.247 0.012c25.6 0 40.107-13.227 40.107-35.84s-18.347-42.667-76.8-42.667v-52.907c70.827 0 87.467-17.92 87.467-46.933s-20.907-37.973-52.48-37.973c-28.147 1.159-53.235 13.37-71.207 32.378l-0.046 0.049-36.267-45.227c26.075-28.503 63.435-46.312 104.953-46.312 2.854 0 5.689 0.084 8.501 0.25l-0.388-0.018c65.707 0 121.173 34.133 121.173 94.72 0 0.060 0 0.132 0 0.203 0 38.573-26.94 70.853-63.030 79.053l-0.543 0.104zM697.173 531.2h-55.040c-23.273-14.371-50.565-24.834-79.753-29.686l-1.314-0.18v-46.507h61.013v-187.733h-70.4v-61.013h206.507v61.013h-61.013z" />
<glyph unicode="&#xe946;" glyph-name="arrow-drop-right" d="M426.667 640l213.333-213.333-213.333-213.333z" />
<glyph unicode="&#xe947;" glyph-name="hierarchy" d="M384 853.334v-170.667h-213.333v-213.333h-85.333v-128h256v128h-85.333v128h341.333v-256h-170.667v-213.333h-85.333v-128h256v128h-85.333v128h256v-128h-85.333v-128h256v128h-85.333v213.333h-170.667v341.333h-213.333v170.667z" />
<glyph unicode="&#xe948;" glyph-name="hyperlink" d="M710.952 371.121c-18.051 15.147-44.963 12.792-60.11-5.259l-54.851-65.369c-15.147-18.051-12.792-44.963 5.259-60.11l130.738-109.702c18.051-15.147 44.963-12.792 60.11 5.259l54.851 65.369c15.147 18.051 12.792 44.963-5.259 60.11l-130.738 109.702zM765.803 436.49l130.738-109.702c54.154-45.44 61.217-126.177 15.777-180.331l-54.851-65.369c-45.44-54.154-126.177-61.217-180.331-15.777l-130.738 109.702c-54.154 45.44-61.217 126.177-15.777 180.331l54.851 65.369c45.44 54.154 126.177 61.217 180.331 15.777zM334.679 679.987c-18.051 15.147-44.963 12.792-60.11-5.259l-54.851-65.369c-15.147-18.051-12.792-44.963 5.259-60.11l130.738-109.702c18.051-15.147 44.963-12.792 60.11 5.259l54.851 65.369c15.147 18.051 12.792 44.963-5.259 60.11l-130.738 109.702zM536.045 455.323l3.38 4.029 65.369-54.851-54.851-65.369-65.369 54.851-3.38-4.029c-45.44-54.154-126.177-61.217-180.331-15.777l-130.738 109.702c-54.154 45.44-61.217 126.177-15.777 180.331l54.851 65.369c45.44 54.154 126.177 61.217 180.331 15.777l130.738-109.702c54.154-45.44 61.217-126.177 15.777-180.331zM350.456 499.656l65.369-54.851 54.851 65.369-65.369 54.851-54.851-65.369zM595.991 300.493l54.851 65.369 65.369-54.851-54.851-65.369-65.369 54.851z" />
<glyph unicode="&#xe949;" glyph-name="valuelist" d="M170.667 640h725.333v128h-725.333v-128zM938.667 554.667v-554.667h-682.667v554.667h-170.667v298.667h853.333v-298.667zM640 768v-128h85.333v128h-85.333zM341.333 512v-426.667h512v426.667h-512zM341.333 341.334v85.333h512v-85.333h-512zM853.333 426.667v0zM341.333 170.667v85.333h512v-85.333h-512zM853.333 256v0zM768 725.334l41.154-42.667 41.154 42.667h-82.307z" />
<glyph unicode="&#xe94a;" glyph-name="arrow-down-right" d="M768 384v-153.003l-524.501 524.501-60.331-60.331 524.501-524.501h-153.003v-85.333h298.667v298.667z" />
<glyph unicode="&#xe94b;" glyph-name="arrow-down" d="M652.501 286.166l-97.835-97.835v665.003h-85.333v-665.003l-97.835 97.835-60.331-60.331 200.832-200.832 200.832 200.832z" />
<glyph unicode="&#xe94c;" glyph-name="evaluation" d="M231.006 61.596l-60.34 60.34 603.398 603.398 60.34-60.34-603.398-603.398zM192.768 469.334v50.176c24.292 22.699 46.492 43.904 66.603 63.616s37.433 38.229 51.968 55.552c14.535 17.323 25.884 33.451 34.048 48.384s12.245 29.17 12.245 42.709c0 18.717-4.779 32.953-14.336 42.709s-22.699 14.635-39.424 14.635c-13.938 0-26.283-3.883-37.035-11.648s-20.907-16.825-30.464-27.179l-47.787 47.189c18.717 19.911 37.831 34.944 57.344 45.099s42.809 15.232 69.888 15.232c18.717 0 35.74-2.887 51.072-8.661s28.572-13.938 39.723-24.491c11.15-10.553 19.712-23.196 25.685-37.931s8.96-31.26 8.96-49.579c0-15.929-3.385-32.156-10.155-48.683s-15.829-33.052-27.179-49.579c-11.349-16.526-24.291-33.052-38.827-49.579s-29.568-32.754-45.099-48.683c9.557 1.195 20.21 2.29 31.957 3.285s22.201 1.493 31.36 1.493h76.459v-74.069h-267.008zM702.208-7.168c-31.061 0-57.344 5.077-78.848 15.232s-39.822 22.798-54.955 37.931l39.424 55.552c11.549-10.354 23.993-19.214 37.333-26.581s28.174-11.051 44.501-11.051c19.513 0 35.043 4.978 46.592 14.933s17.323 24.69 17.323 44.203c0 19.115-5.475 33.65-16.427 43.605s-25.387 14.933-43.307 14.933c-5.575 0-10.553-0.299-14.933-0.896s-8.661-1.692-12.843-3.285c-4.181-1.593-8.562-3.584-13.141-5.973s-9.657-5.376-15.232-8.96l-39.424 25.088 10.752 191.744h215.040v-74.069h-139.179l-6.571-71.083c7.168 3.186 14.037 5.476 20.608 6.869s13.838 2.091 21.803 2.091c16.327 0 31.758-2.389 46.293-7.168s27.378-11.947 38.528-21.504c11.15-9.557 19.911-21.703 26.283-36.437s9.557-32.256 9.557-52.565c0-21.106-3.783-39.822-11.349-56.149s-17.721-30.165-30.464-41.515c-12.743-11.349-27.577-20.011-44.501-25.984s-34.546-8.96-52.864-8.96z" />
<glyph unicode="&#xe94d;" glyph-name="text" d="M260.096 247.808c-20.935 0-38.798 3.186-53.589 9.557s-26.852 15.246-36.181 26.624c-9.33 11.378-16.156 25.145-20.48 41.301s-6.485 34.019-6.485 53.589v137.216h-46.421v74.411l51.883 4.096 11.605 90.112h83.285v-90.112h81.237v-78.507h-81.237v-135.851c0-19.115 3.982-32.882 11.947-41.301s18.546-12.629 31.744-12.629c5.461 0 11.036 0.683 16.725 2.048s10.809 2.958 15.36 4.779l15.701-73.045c-9.102-2.731-19.797-5.461-32.085-8.192s-26.624-4.096-43.008-4.096zM356.352 256l103.765 176.128-97.621 162.475h107.861l30.037-54.613c4.551-9.557 9.216-19.228 13.995-29.013s9.671-19.456 14.677-29.013h2.731c3.641 9.557 7.509 19.228 11.605 29.013s7.964 19.456 11.605 29.013l23.211 54.613h103.765l-98.304-174.080 104.448-164.523h-107.861l-32.768 55.979c-5.461 9.557-10.809 19.342-16.043 29.355s-10.581 19.797-16.043 29.355h-2.731c-4.096-9.557-8.42-19.228-12.971-29.013s-8.875-19.684-12.971-29.696l-26.624-55.979h-103.765zM872.448 247.808c-20.935 0-38.798 3.186-53.589 9.557s-26.852 15.246-36.181 26.624c-9.33 11.378-16.156 25.145-20.48 41.301s-6.485 34.019-6.485 53.589v137.216h-46.421v74.411l51.883 4.096 11.605 90.112h83.285v-90.112h81.237v-78.507h-81.237v-135.851c0-19.115 3.982-32.882 11.947-41.301s18.546-12.629 31.744-12.629c5.461 0 11.036 0.683 16.725 2.048s10.809 2.958 15.36 4.779l15.701-73.045c-9.102-2.731-19.797-5.461-32.085-8.192s-26.624-4.096-43.008-4.096z" />
<glyph unicode="&#xe94e;" glyph-name="richtext" d="M260.096 247.808c-20.935 0-38.798 3.186-53.589 9.557s-26.852 15.246-36.181 26.624c-9.33 11.378-16.156 25.145-20.48 41.301s-6.485 34.019-6.485 53.589v137.216h-46.421v74.411l51.883 4.096 11.605 90.112h83.285v-90.112h81.237v-78.507h-81.237v-135.851c0-19.115 3.982-32.882 11.947-41.301s18.546-12.629 31.744-12.629c5.461 0 11.036 0.683 16.725 2.048s10.809 2.958 15.36 4.779l15.701-73.045c-9.102-2.731-19.797-5.461-32.085-8.192s-26.624-4.096-43.008-4.096zM356.352 256l103.765 176.128-97.621 162.475h107.861l30.037-54.613c4.551-9.557 9.216-19.228 13.995-29.013s9.671-19.456 14.677-29.013h2.731c3.641 9.557 7.509 19.228 11.605 29.013s7.964 19.456 11.605 29.013l23.211 54.613h103.765l-98.304-174.080 104.448-164.523h-107.861l-32.768 55.979c-5.461 9.557-10.809 19.342-16.043 29.355s-10.581 19.797-16.043 29.355h-2.731c-4.096-9.557-8.42-19.228-12.971-29.013s-8.875-19.684-12.971-29.696l-26.624-55.979h-103.765zM872.448 247.808c-20.935 0-38.798 3.186-53.589 9.557s-26.852 15.246-36.181 26.624c-9.33 11.378-16.156 25.145-20.48 41.301s-6.485 34.019-6.485 53.589v137.216h-46.421v74.411l51.883 4.096 11.605 90.112h83.285v-90.112h81.237v-78.507h-81.237v-135.851c0-19.115 3.982-32.882 11.947-41.301s18.546-12.629 31.744-12.629c5.461 0 11.036 0.683 16.725 2.048s10.809 2.958 15.36 4.779l15.701-73.045c-9.102-2.731-19.797-5.461-32.085-8.192s-26.624-4.096-43.008-4.096zM85.333 128h853.333v-85.333h-853.333v85.333z" />
<glyph unicode="&#xe94f;" glyph-name="fusion" d="M707.2 468.267h230.4v-86.4h-230.4v86.4zM723.2 426.667v-156.8l-86.4 80-89.6 76.8 172.8 160v-160h3.2zM86.4 468.267h230.4v-86.4h-230.4v86.4zM300.8 426.667v-156.8l172.8 160-172.8 160v-163.2zM169.6 769.067h169.6v83.2h-256v-256h86.4v172.8zM681.6 852.267v-86.4h169.6v-169.6h86.4v256c0 0-256 0-256 0zM854.4 84.267h-169.6v-86.4h256v256h-86.4v-169.6zM169.6 257.067h-83.2v-256h256v86.4h-172.8v169.6z" />
<glyph unicode="&#xe950;" glyph-name="spanner-01" d="M946.103 751.787c-0.225 1.791-1.347 3.277-2.895 4.010l-0.031 0.013c-0.816 0.305-1.759 0.482-2.743 0.482s-1.927-0.177-2.799-0.5l0.056 0.018-93.623-92.526-96.914 96.914 93.989 93.623c1.052 0.878 1.716 2.19 1.716 3.657s-0.664 2.779-1.709 3.651l-0.008 0.006s0 0 0 0c-14.169 3.258-30.44 5.125-47.147 5.125-58.056 0-110.846-22.546-150.091-59.361l0.118 0.11c-23.277-25.802-37.518-60.149-37.518-97.822 0-17.368 3.027-34.029 8.581-49.484l-0.32 1.020c0-5.12 2.194-11.337 3.291-15.36-35.474-35.84-288.914-288.549-325.486-324.023l-13.531 3.291c-15.060 6.053-32.521 9.564-50.802 9.564-36.963 0-70.573-14.355-95.56-37.794l0.075 0.070c-36.648-38.595-59.189-90.893-59.189-148.456 0-16.467 1.845-32.504 5.339-47.914l-0.276 1.445c0.781-2.375 2.979-4.059 5.57-4.059 0.228 0 0.453 0.013 0.674 0.038l-0.027-0.003c0.328-0.107 0.705-0.168 1.097-0.168s0.769 0.062 1.123 0.176l-0.026-0.007 93.623 91.794 96.914-96.914-94.72-92.891c-1.052-0.878-1.716-2.19-1.716-3.657s0.664-2.779 1.709-3.651l0.008-0.006s0 0 1.829 0c13.762-3.051 29.643-4.905 45.92-5.118l0.16-0.002c0.451-0.003 0.984-0.005 1.518-0.005 58.106 0 110.839 23.007 149.585 60.409l-0.063-0.061c23.277 25.802 37.518 60.149 37.518 97.822 0 17.368-3.027 34.029-8.581 49.484l0.32-1.020c0 5.12-2.194 11.337-3.291 15.726 33.28 36.571 285.623 288.549 322.926 324.023l13.531-3.291c15.233-6.148 32.898-9.716 51.396-9.716 36.61 0 69.956 13.972 94.998 36.875l-0.107-0.097c37.155 39.225 60.002 92.33 60.002 150.772 0 15.5-1.607 30.624-4.664 45.216l0.25-1.428z" />
<glyph unicode="&#xe951;" glyph-name="multi-value" d="M281.443 371.675c2.184 3.894 4.754 7.243 7.734 10.178l370.69 370.69c3.154 2.898 6.78 5.35 10.736 7.221l0.263 0.112c3.612 1.547 7.813 2.447 12.226 2.447 0.141 0 0.282-0.001 0.423-0.003h235.832c0.341 0.012 0.741 0.019 1.143 0.019 9.181 0 17.527-3.573 23.724-9.404l-0.018 0.016c5.806-5.821 9.395-13.854 9.395-22.725 0-0.46-0.010-0.918-0.029-1.374l0.002 0.065v-236.261c0.025-0.419 0.039-0.909 0.039-1.402 0-4.256-1.070-8.263-2.956-11.765l0.065 0.132c-2.159-4.025-4.593-7.498-7.383-10.649l0.051 0.058-371.091-371.091c-5.969-6.23-14.337-10.122-23.615-10.184h-0.011c-9.271 0.159-17.609 4.026-23.62 10.177l-0.007 0.007-236.261 235.853c-2.726 3.32-5.166 7.063-7.175 11.058l-0.158 0.347c-1.55 3.536-2.451 7.658-2.451 11.989 0 0.224 0.003 0.449 0.008 0.672l-0.001-0.033c-0.017 0.394-0.027 0.857-0.027 1.322 0 4.518 0.908 8.823 2.552 12.744l-0.081-0.218zM360.060 358.233l122.204-122.204 47.252-46.845 17.923-18.331 338.504 337.282v187.786h-189.008zM784.922 527.282c-18.959 0.020-35.97 8.339-47.599 21.52l-0.060 0.069c-12.071 11.775-19.558 28.203-19.558 46.379 0 0.307 0.002 0.614 0.007 0.919l-0.001-0.046c-0.004 0.279-0.007 0.608-0.007 0.938 0 18.284 7.482 34.82 19.552 46.714l0.008 0.008c11.776 12.075 28.206 19.565 46.385 19.565 0.448 0 0.895-0.005 1.34-0.013l-0.067 0.001c0.242 0.003 0.529 0.005 0.816 0.005 36.895 0 66.804-29.909 66.804-66.804 0-0.145 0-0.29-0.001-0.434v0.022c0.007-0.364 0.011-0.792 0.011-1.222 0-37.345-30.274-67.62-67.62-67.62-0.004 0-0.008 0-0.011 0h0.001zM151.5 358.641l189.008-189.008 73.73 74.137 47.252-47.252-97.355-95.726c-5.78-6.594-14.22-10.735-23.626-10.735s-17.846 4.141-23.595 10.699l-0.031 0.036-236.667 234.223c-5.953 6.089-9.624 14.429-9.624 23.626s3.673 17.537 9.631 23.632l-0.006-0.007 370.684 370.277c5.397 6.057 13.219 9.852 21.928 9.852 0.741 0 1.475-0.028 2.203-0.081l-0.097 0.006h265.589v-65.99h-252.147z" />
<glyph unicode="&#xe952;" glyph-name="star" d="M964.267 533.334c-4.267 17.067-21.333 29.867-38.4 29.867l-273.067 21.333-102.4 251.733c-8.533 17.067-21.333 25.6-38.4 25.6s-34.133-8.533-42.667-25.6l-102.4-251.733-273.067-21.333c-17.067 0-29.867-12.8-38.4-29.867-4.267-17.067 0-34.133 12.8-46.933l209.067-174.933-64-268.8c-4.267-17.067 4.267-34.133 17.067-42.667 8.533-4.267 17.067-8.533 25.6-8.533s17.067 4.267 21.333 8.533l234.667 145.067 234.667-145.067c12.8-8.533 34.133-8.533 46.933 0s21.333 29.867 17.067 42.667l-64 268.8 209.067 174.933c8.533 12.8 12.8 29.867 8.533 46.933zM665.6 362.667c-12.8-8.533-17.067-25.6-12.8-42.667l46.933-192-166.4 106.667c-12.8 8.533-29.867 8.533-46.933 0l-166.4-106.667 46.933 192c4.267 17.067 0 34.133-12.8 42.667l-149.333 123.733 196.267 17.067c17.067 0 29.867 12.8 34.133 25.6l76.8 179.2 72.533-179.2c4.267-12.8 21.333-25.6 34.133-25.6l196.267-17.067-149.333-123.733z" />
<glyph unicode="&#xe953;" glyph-name="star-fav" d="M536.206 898.823l130.254-308.288 333.466-28.647c23.128-1.997 32.537-30.855 14.981-46.046l-252.938-219.139 75.797-326.002c5.256-22.655-19.291-40.474-39.16-28.437l-286.579 172.831-286.579-172.831c-19.922-11.985-44.417 5.835-39.16 28.437l75.797 326.002-252.991 219.192c-17.556 15.191-8.2 44.049 14.981 46.046l333.466 28.647 130.254 308.236c9.041 21.446 39.37 21.446 48.411 0z" />
<glyph unicode="&#xe954;" glyph-name="save" d="M725.333 718.507l96.427-104.533v-479.147h-585.813v583.68h489.387zM757.333 791.894h-521.387c-40.346-0.242-72.96-33.005-72.96-73.385 0 0 0-0.001 0-0.001v0-583.68c0 0 0-0.001 0-0.001 0-40.38 32.614-73.143 72.937-73.385h584.13c40.346 0.242 72.96 33.005 72.96 73.385 0 0 0 0.001 0 0.001v0 507.733l-137.387 149.333zM563.2 718.507c26.855-0.235 48.591-21.821 49.066-48.595l0.001-0.045v-50.347c-0.703-26.724-22.305-48.177-49.023-48.639l-0.044-0.001h-168.107c-26.672 0.47-48.169 21.968-48.639 48.595l-0.001 0.045v50.347c0.239 26.766 21.874 48.401 48.617 48.64h168.13zM563.2 791.894h-168.107c-67.21-0.242-121.6-54.782-121.6-122.026 0 0 0 0 0-0.001v0-50.347c0.242-67.060 54.54-121.358 121.577-121.6h168.13c67.147 0.24 121.544 54.487 122.026 121.554v50.393c-0.242 67.296-54.731 121.785-122.003 122.027h-0.023zM658.773 379.734c26.672-0.47 48.169-21.968 48.639-48.595l0.001-0.045v-147.627c-0.239-26.766-21.874-48.401-48.617-48.64h-263.703c-26.766 0.239-48.401 21.874-48.64 48.617v147.65c0.47 26.672 21.968 48.169 48.595 48.639l0.045 0.001h263.68zM658.773 452.694h-263.68c-67.060-0.242-121.358-54.54-121.6-121.577v-147.65c0 0 0 0 0-0.001 0-67.243 54.39-121.783 121.577-122.026h263.703c67.21 0.242 121.6 54.782 121.6 122.026 0 0 0 0 0 0.001v0 147.627c-0.242 67.060-54.54 121.358-121.577 121.6h-0.023zM565.76 687.36v0c-11.546 0-20.907-9.36-20.907-20.907v0-42.667c0-11.546 9.36-20.907 20.907-20.907v0 0c11.546 0 20.907 9.36 20.907 20.907v0 42.667c0 11.546-9.36 20.907-20.907 20.907v0z" />
<glyph unicode="&#xe955;" glyph-name="git-compare" horiz-adv-x="896" d="M832 216.667s0 306 0 402-96 192-192 192c-63.991 0-63.991 0-63.991 0v128l-192-192 192-192v128s31.999 0 63.991 0 63.991-31.999 63.991-63.991 0-402 0-402c-37.999-21.991-63.991-63-63.991-110.010 0-70.999 57-128 128-128s128 57 128 128c0 46.999-25.999 88.002-63.991 110.010zM768 42.667c-34.999 0-63.991 28.999-63.991 63.991s28.999 63.991 63.991 63.991 63.991-28.999 63.991-63.991-28.999-63.991-63.991-63.991zM320 170.674s-31.999 0-63.991 0-63.991 31.999-63.991 63.991 0 402 0 402c37.999 21.991 63.991 63 63.991 110.010 0 70.999-57 128-128 128s-128-57-128-128c0-46.999 25.999-88.002 63.991-110.010 0 0 0-306 0-402s96-192 192-192c63.991 0 63.991 0 63.991 0v-128l192 192-192 192v-128zM128 682.66c-34.999 0-63.991 28.999-63.991 63.991s28.999 63.991 63.991 63.991 63.991-28.999 63.991-63.991-28.999-63.991-63.991-63.991z" />
<glyph unicode="&#xe956;" glyph-name="arrow-up-left" d="M840.832 158.166l-524.501 524.501h153.003v85.333h-298.667v-298.667h85.333v153.003l524.501-524.501z" />
<glyph unicode="&#xe957;" glyph-name="dimension-group" d="M725.333 853.334h-426.667c-119.467 0-213.333-93.867-213.333-213.333v-426.667c0-119.467 93.867-213.333 213.333-213.333h426.667c119.467 0 213.333 93.867 213.333 213.333v426.667c0 119.467-93.867 213.333-213.333 213.333zM853.333 213.334c0-68.267-55.467-128-128-128h-426.667c-72.533 0-128 59.733-128 128v426.667c0 72.533 55.467 128 128 128h426.667c72.533 0 128-55.467 128-128v-426.667zM725.333 341.334v42.667h-196.267c0-4.267-4.267-4.267-8.533-8.533l-153.6-153.6 29.867-29.867h-119.467v119.467l29.867-29.867 145.067 145.067-145.067 145.067-29.867-29.867v119.467h119.467l-29.867-29.867 153.6-153.6c4.267-4.267 4.267-4.267 8.533-8.533h196.267v42.667l85.333-85.333-85.333-85.333z" />
<glyph unicode="&#xe958;" glyph-name="arrow-up" d="M712.832 627.499l-200.832 200.832-200.832-200.832 60.331-60.331 97.835 97.835v-665.003h85.333v665.003l97.835-97.835z" />
<glyph unicode="&#xe959;" glyph-name="suggest" d="M810.667 512h-597.333c-23.552 0-42.667-19.115-42.667-42.667v-298.667h85.333v256h42.667v-256c0-23.595 19.115-42.667 42.667-42.667h42.667v-128h85.333v128h85.333v-128h85.333v128h42.667c23.552 0 42.667 19.072 42.667 42.667v256h42.667v-256h85.333v298.667c0 23.595-19.115 42.667-42.667 42.667zM640 213.334h-256v213.333h256v-213.333zM298.667 597.334c0-23.595 19.115-42.667 42.667-42.667h341.333c23.552 0 42.667 19.072 42.667 42.667 0 43.435-13.184 83.712-35.541 117.461l65.707 65.707-60.331 60.331-65.707-65.707c-33.749 22.357-74.027 35.541-117.461 35.541s-83.712-13.227-117.461-35.541l-65.707 65.707-60.331-60.331 65.707-65.707c-22.357-33.707-35.541-74.027-35.541-117.461zM512 725.334c55.637 0 103.083-35.669 120.704-85.333h-241.408c17.621 49.707 65.067 85.333 120.704 85.333z" />
<glyph unicode="&#xe95a;" glyph-name="suggest-rel" d="M128 682.667c0-23.552 19.115-42.667 42.667-42.667h341.333c23.552 0 42.667 19.115 42.667 42.667 0 43.392-13.184 83.712-35.541 117.419l65.707 65.707-60.331 60.331-65.707-65.707c-33.749 22.4-74.027 35.584-117.461 35.584s-83.712-13.184-117.461-35.541l-65.707 65.707-60.331-60.373 65.707-65.707c-22.357-33.707-35.541-74.027-35.541-117.419zM341.333 810.667c55.637 0 103.083-35.669 120.704-85.333h-241.408c17.621 49.664 65.067 85.333 120.704 85.333zM917.333 128c-34.688 0-65.237-16.896-84.736-42.581l-109.312 43.691c1.28 6.571 2.048 13.312 2.048 20.224s-0.768 13.653-2.048 20.181l109.312 43.733c19.499-25.685 50.091-42.581 84.736-42.581 58.795 0 106.667 47.872 106.667 106.667s-47.872 106.667-106.667 106.667-106.667-47.872-106.667-106.667c0-1.323 0.341-2.517 0.384-3.797l-118.656-47.445c-19.2 18.432-45.099 29.909-73.728 29.909-58.795 0-106.667-47.872-106.667-106.667s47.872-106.667 106.667-106.667c28.629 0 54.528 11.477 73.728 29.909l118.656-47.445c-0.043-1.323-0.384-2.517-0.384-3.797 0-58.795 47.872-106.667 106.667-106.667s106.667 47.872 106.667 106.667-47.872 106.667-106.667 106.667zM554.667 426.667v85.333h42.667v-85.333h85.333v128c0 23.552-19.115 42.667-42.667 42.667h-597.333c-23.552 0-42.667-19.115-42.667-42.667v-298.667h85.333v256h42.667v-256c0-23.552 19.115-42.667 42.667-42.667h42.667v-128h85.333v128h85.333v-128h85.333v213.333h-256v213.333h256v-85.333h85.333z" />
<glyph unicode="&#xe95b;" glyph-name="suggest-check" d="M128 682.667c0-23.595 19.115-42.667 42.667-42.667h341.333c23.595 0 42.667 19.072 42.667 42.667 0 43.435-13.184 83.712-35.541 117.461l65.707 65.707-60.331 60.331-65.707-65.707c-33.707 22.357-74.027 35.541-117.461 35.541s-83.712-13.227-117.461-35.541l-65.707 65.707-60.331-60.331 65.707-65.707c-22.315-33.707-35.541-74.027-35.541-117.461zM341.333 810.667c55.637 0 103.083-35.669 120.704-85.333h-241.365c17.579 49.707 65.024 85.333 120.661 85.333zM682.667 298.667v256c0 23.552-19.072 42.667-42.667 42.667h-597.333c-23.552 0-42.667-19.072-42.667-42.667v-298.667h85.333v256h42.667v-256c0-23.595 19.115-42.667 42.667-42.667h42.667v-128h85.333v128h85.333v-128h85.333v128h42.667c23.595 0 42.667 19.072 42.667 42.667v256h42.667v-213.333h85.333zM469.333 298.667h-256v213.333h256v-213.333zM951.168 243.755l-183.168-183.168-97.835 97.835-60.331-60.331 158.165-158.165 243.499 243.499z" />
<glyph unicode="&#xe95c;" glyph-name="suggest-close" d="M640 597.334h-597.333c-23.552 0-42.667-19.115-42.667-42.667v-298.667h85.333v256h42.667v-256c0-23.552 19.115-42.667 42.667-42.667h42.667v-128h85.333v128h85.333v-128h85.333v128h42.667c23.552 0 42.667 19.115 42.667 42.667v256h42.667v-256h85.333v298.667c0 23.552-19.115 42.667-42.667 42.667zM469.333 298.667h-256v213.333h256v-213.333zM128 682.667c0-23.552 19.115-42.667 42.667-42.667h341.333c23.552 0 42.667 19.115 42.667 42.667 0 43.392-13.184 83.712-35.541 117.419l65.707 65.707-60.331 60.331-65.707-65.707c-33.749 22.4-74.027 35.584-117.461 35.584s-83.712-13.184-117.461-35.541l-65.707 65.707-60.331-60.373 65.707-65.707c-22.357-33.707-35.541-74.027-35.541-117.419zM341.333 810.667c55.637 0 103.083-35.669 120.704-85.333h-241.408c17.621 49.664 65.067 85.333 120.704 85.333zM1011.499 183.126l-60.331 60.331-97.835-97.792-97.835 97.792-60.331-60.331 97.835-97.792-97.835-97.877 60.331-60.331 97.835 97.877 97.835-97.877 60.331 60.331-97.835 97.877z" />
<glyph unicode="&#xe95d;" glyph-name="suggest-view" d="M128 682.667c0-23.552 19.115-42.667 42.667-42.667h341.333c23.552 0 42.667 19.115 42.667 42.667 0 43.392-13.184 83.712-35.541 117.419l65.707 65.707-60.331 60.331-65.707-65.707c-33.749 22.4-74.027 35.584-117.461 35.584s-83.712-13.184-117.461-35.541l-65.707 65.707-60.331-60.373 65.707-65.707c-22.357-33.707-35.541-74.027-35.541-117.419zM341.333 810.667c55.637 0 103.083-35.669 120.704-85.333h-241.408c17.621 49.664 65.067 85.333 120.704 85.333zM998.997 0.256l-138.539 138.539c22.357 33.707 35.541 74.069 35.541 117.461 0 117.632-95.701 213.333-213.333 213.333s-213.333-95.701-213.333-213.333c0-117.675 95.701-213.333 213.333-213.333 43.435 0 83.712 13.184 117.461 35.541l138.539-138.581 60.331 60.373zM554.667 256.256c0 70.571 57.429 128 128 128s128-57.429 128-128c0-70.571-57.429-128-128-128s-128 57.429-128 128zM213.333 512h469.333v42.667c0 23.552-19.115 42.667-42.667 42.667h-597.333c-23.552 0-42.667-19.115-42.667-42.667v-298.667h85.333v256h42.667v-256c0-23.552 19.115-42.667 42.667-42.667h42.667v-128h85.333v128h85.333v85.333h-170.667v213.333z" />
<glyph unicode="&#xe95e;" glyph-name="suggest-alert" d="M640 597.334h-597.333c-23.552 0-42.667-19.072-42.667-42.667v-298.667h85.333v256h42.667v-256c0-23.595 19.115-42.667 42.667-42.667h42.667v-128h85.333v128h85.333v-128h85.333v128h42.667c23.552 0 42.667 19.072 42.667 42.667v256h42.667v-256h85.333v298.667c0 23.595-19.115 42.667-42.667 42.667zM469.333 298.667h-256v213.333h256v-213.333zM128 682.667c0-23.595 19.115-42.667 42.667-42.667h341.333c23.552 0 42.667 19.072 42.667 42.667 0 43.435-13.184 83.712-35.541 117.461l65.707 65.707-60.331 60.331-65.707-65.707c-33.749 22.357-74.027 35.541-117.461 35.541s-83.712-13.227-117.461-35.541l-65.707 65.707-60.331-60.331 65.707-65.707c-22.357-33.707-35.541-74.027-35.541-117.461zM341.333 810.667c55.637 0 103.083-35.669 120.704-85.333h-241.408c17.621 49.707 65.067 85.333 120.704 85.333zM853.333 341.334h85.333v-256h-85.333v256zM938.667-0c0-23.564-19.103-42.667-42.667-42.667s-42.667 19.103-42.667 42.667c0 23.564 19.103 42.667 42.667 42.667s42.667-19.103 42.667-42.667z" />
<glyph unicode="&#xe95f;" glyph-name="arrow-left" d="M938.667 469.334h-665.003l97.835 97.835-60.331 60.331-200.832-200.832 200.832-200.832 60.331 60.331-97.835 97.835h665.003z" />
<glyph unicode="&#xe960;" glyph-name="arrow-right" d="M712.832 627.499l-60.331-60.331 97.835-97.835h-665.003v-85.333h665.003l-97.835-97.835 60.331-60.331 200.832 200.832z" />
<glyph unicode="&#xe961;" glyph-name="logo-dg" horiz-adv-x="1669" d="M1667.671 286.229c0 0.105 0 0.231 0 0.356 0 167.23-110.727 308.597-262.866 354.787l-2.626 0.685c-62.139 174.184-225.667 296.61-417.788 296.61-0.196 0-0.391 0-0.586 0h0.030c-220.394 0-403.662-161.736-437.515-372.755-54.169 35.772-120.634 57.068-192.073 57.068-0.102 0-0.204 0-0.306 0h0.016c-195.168 0-353.958-158.79-353.958-353.958s158.79-353.958 353.958-353.958h972.94c7.587 0.011 14.859 1.347 21.602 3.787l-0.444-0.14c180.346 25.203 319.614 180.369 319.614 367.518zM353.935 495.074c124.832 0 226.028-101.196 226.028-226.028s-101.196-226.028-226.028-226.028c-124.832 0-226.028 101.196-226.028 226.028v0c0.146 124.781 101.269 225.895 226.039 226.028h0.013zM1296.529 43.018c-0.101 0-0.22 0-0.34 0-85.41 0-160.506 44.162-203.698 110.897l-0.575 0.948-22.233 34.531-40.633-5.845c-13.58-2.064-29.262-3.254-45.218-3.273h-0.021c-173.823 0-315.242 141.42-315.242 315.242s141.42 315.242 315.242 315.242c0.135 0 0.295 0 0.455 0 146.559 0 269.72-100.176 304.747-235.791l0.479-2.185 10.076-39.978 40.563-7.341c114.528-21.137 200.137-120.225 200.137-239.308 0-134.283-108.858-243.142-243.142-243.142-0.21 0-0.419 0-0.629 0.001h0.032z" />
<glyph unicode="&#xe962;" glyph-name="client" d="M912.64 247.126c-110.705-74.649-247.101-119.157-393.892-119.157-2.372 0-4.742 0.012-7.108 0.035-219.415-0.003-340.973 126.12-340.973 213.331 0 48.853 43.136 123.733 186.112 155.392-9.681-20.553-15.365-44.632-15.445-70.031 0-94.285 76.41-170.695 170.667-170.695 314.923 0 426.667 137.899 426.667 256 0 125.227-148.309 298.667-426.667 298.667-3.084 0.044-6.724 0.069-10.37 0.069-165.307 0-318.649-51.234-445.010-138.69l54.741-65.838c110.705 74.649 247.101 119.157 393.892 119.157 2.372 0 4.742-0.012 7.108-0.035 219.415 0.003 340.973-126.12 340.973-213.331 0-48.853-43.136-123.733-186.112-155.392 9.681 20.553 15.365 44.632 15.445 70.031 0 94.285-76.41 170.695-170.667 170.695-314.923 0-426.667-137.899-426.667-256 0-125.227 148.309-298.667 426.667-298.667 3.084-0.044 6.724-0.069 10.37-0.069 165.307 0 318.649 51.234 445.010 138.69zM597.333 426.667c0-47.128-38.205-85.333-85.333-85.333s-85.333 38.205-85.333 85.333c0 47.128 38.205 85.333 85.333 85.333s85.333-38.205 85.333-85.333z" />
<glyph unicode="&#xe963;" glyph-name="compare-item" d="M128 213.334v426.667h256v-183.040l85.333 170.667v97.707h-426.667v-597.333h177.067l42.667 85.333zM804.267 725.334l-42.667-85.333h134.4v-426.667h-256v183.040l-85.333-170.667v-97.707h426.667v597.333zM763.307 834.134l-75.947 38.4-426.667-853.333 75.947-38.4z" />
<glyph unicode="&#xe964;" glyph-name="nosql" d="M810.667 938.667h-768c-21.333 0-42.667-21.333-42.667-42.667v-768c0-21.333 21.333-42.667 42.667-42.667h384v85.333h-341.333v170.667h345.6c8.533 29.867 21.333 59.733 38.4 85.333h-384v170.667h682.667v-85.333h85.333v384c0 21.333-21.333 42.667-42.667 42.667zM85.333 682.667v170.667h682.667v-170.667h-682.667zM213.333 768c0-23.564-19.103-42.667-42.667-42.667s-42.667 19.103-42.667 42.667c0 23.564 19.103 42.667 42.667 42.667s42.667-19.103 42.667-42.667zM213.333 512c0-23.564-19.103-42.667-42.667-42.667s-42.667 19.103-42.667 42.667c0 23.564 19.103 42.667 42.667 42.667s42.667-19.103 42.667-42.667zM213.333 256c0-23.564-19.103-42.667-42.667-42.667s-42.667 19.103-42.667 42.667c0 23.564 19.103 42.667 42.667 42.667s42.667-19.103 42.667-42.667zM648.533 277.334c0-29.867 0-72.533-17.067-106.667 8.533-12.8 12.8-25.6 12.8-42.667 4.267-12.8 4.267-29.867 4.267-42.667 0-8.533 0-12.8 0-21.333 0-21.333 0-55.467 4.267-64 0 0 0 0 0 0h46.933v-85.333h-42.667c-93.867 0-93.867 98.133-93.867 149.333 0 4.267 0 12.8 0 21.333 0 17.067 0 38.4-4.267 42.667 0 0 0 0-4.267 0h-42.667v85.333h42.667c4.267 0 4.267 0 4.267 0 4.267 8.533 4.267 42.667 4.267 64 0 17.067 0 42.667 4.267 64 8.533 42.667 29.867 85.333 93.867 85.333h42.667v-85.333h-42.667c-4.267 0-4.267 0-4.267 0-8.533-8.533-8.533-42.667-8.533-64zM1024 213.334v-85.333h-42.667c-4.267 0-4.267 0-4.267 0-4.267-8.533-4.267-42.667-4.267-64 0-51.2 0-149.333-93.867-149.333h-42.667v85.333h42.667c4.267 0 4.267 0 4.267 0 4.267 8.533 4.267 42.667 4.267 64 0 29.867 0 72.533 17.067 106.667-17.067 34.133-17.067 76.8-17.067 106.667 0 21.333 0 55.467-4.267 64 0 0 0 0-4.267 0h-42.667v85.333h42.667c93.867 0 93.867-98.133 93.867-149.333 0-21.333 0-55.467 4.267-64 0 0 0 0 4.267 0h42.667z" />
<glyph unicode="&#xe965;" glyph-name="share" d="M624.001 157.866c-5.599 0-11.201 0-16.8 2.801-16.8 5.599-28.001 22.399-28.001 42v223.999h89.599v-114.799l204.401 204.401-204.401 204.401v-114.799h-89.599v223.999c0 16.8 11.201 33.6 28.001 42 16.8 5.599 36.401 2.801 47.599-8.4l313.601-313.601c8.4-8.4 13.999-19.601 13.999-30.799s-5.599-22.399-13.999-30.799l-313.601-316.399c-8.4-8.4-19.601-13.999-30.799-13.999zM86.402-21.335c-25.2 0-44.801 19.601-44.801 44.801 0 663.6 576.798 672 582.401 672v-89.599c-16.8 0-307.999-5.599-433.998-280.001 170.801 123.199 425.598 103.601 436.8 100.8l-8.4-89.599c-2.801 0-268.8 19.601-406.001-106.399-55.999-50.4-84-120.401-84-207.199 2.801-25.2-16.8-44.801-42-44.801z" />
<glyph unicode="&#xe966;" glyph-name="business-domain" d="M85.344 597.323h85.344v170.656h170.656v85.344h-256v-256zM682.656 853.323v-85.344h170.656v-170.656h85.344v256h-256zM853.344 85.323h-170.656v-85.344h256v256h-85.344v-170.656zM170.656 256.011h-85.344v-256h256v85.344h-170.656v170.656zM448 746.667v-128h-160v-160h-64v-96h176v96h-64v112h240v-112h-128v-128h-64v-96h176v96h-64v80h192v-112h-64v-96h176v96h-64v160h-112v160h-128v128z" />
<glyph unicode="&#xe967;" glyph-name="undo" d="M512 874.673c-141.386 0-269.373-57.323-362.025-149.978l-149.975 149.978v-384h384l-143.532 143.528c69.503 69.492 165.494 112.478 271.532 112.478 212.072 0 384-171.924 384-384 0-114.696-50.292-217.629-130.025-288l84.666-96.005c106.302 93.821 173.352 231.069 173.352 384 0 282.77-229.23 512-512 512z" />
<glyph unicode="&#xe968;" glyph-name="checkbox-unchecked" d="M896 853.323h-768c-23.552 0-42.656-19.104-42.656-42.656v0-768c0-23.552 19.104-42.656 42.656-42.656v0h768c23.552 0 42.656 19.104 42.656 42.656v0 768c0 23.552-19.104 42.656-42.656 42.656v0zM853.344 85.323h-682.656v682.656h682.656z" />
<glyph unicode="&#xe969;" glyph-name="checkbox-checked" d="M896 853.323h-768c-23.552 0-42.656-19.104-42.656-42.656v0-768c0-23.552 19.104-42.656 42.656-42.656v0h768c23.552 0 42.656 19.104 42.656 42.656v0 768c0 23.552-19.104 42.656-42.656 42.656v0zM456.96 225.707c-7.744-7.808-18.464-12.608-30.304-12.608s-22.56 4.832-30.304 12.608l-170.656 170.656 60.576 60.576 140.384-140.8 311.040 311.456 60.576-60.576z" />
<glyph unicode="&#xe96a;" glyph-name="spinner" d="M1024 554.667h-384l143.53 143.53c-72.53 72.526-168.96 112.47-271.53 112.47s-199-39.944-271.53-112.47c-72.526-72.53-112.47-168.96-112.47-271.53s39.944-199 112.47-271.53c72.53-72.526 168.96-112.47 271.53-112.47s199 39.944 271.528 112.472c6.056 6.054 11.86 12.292 17.456 18.668l96.32-84.282c-93.846-107.166-231.664-174.858-385.304-174.858-282.77 0-512 229.23-512 512s229.23 512 512 512c141.386 0 269.368-57.326 362.016-149.984l149.984 149.984v-384z" />
<glyph unicode="&#xe96b;" glyph-name="reset" d="M0 554.667h384l-143.53 143.53c72.53 72.526 168.96 112.47 271.53 112.47s199-39.944 271.53-112.47c72.526-72.53 112.47-168.96 112.47-271.53s-39.944-199-112.47-271.53c-72.53-72.526-168.96-112.47-271.53-112.47s-199 39.944-271.528 112.472c-6.056 6.054-11.86 12.292-17.456 18.668l-96.32-84.282c93.846-107.166 231.664-174.858 385.304-174.858 282.77 0 512 229.23 512 512s-229.23 512-512 512c-141.386 0-269.368-57.326-362.016-149.984l-149.984 149.984v-384z" />
<glyph unicode="&#xe96c;" glyph-name="datamap" d="M285.563 334.815q67.747 5.599 114.105-40.48t40.48-114.105c-2.525-27.99-13.486-53.026-30.285-72.985l0.163 0.199c-25.593-32.249-64.786-52.747-108.768-52.747-5.729 0-11.376 0.348-16.922 1.023l0.667-0.066c-28.013 2.645-53.037 13.693-72.979 30.562l0.193-0.159q-52.070 43.951-52.070 109.29t52.070 109.29c19.905 16.745 45.149 27.74 72.853 30.144l0.492 0.034zM94.249 530.777c0.34 0.004 0.741 0.007 1.142 0.007 25.367 0 48.281-10.511 64.62-27.416l0.024-0.025c16.944-16.566 27.45-39.654 27.45-65.197 0-0.601-0.005-1.2-0.017-1.799l0.002 0.090c0.005-0.375 0.009-0.817 0.009-1.26 0-25.332-10.514-48.207-27.416-64.501l-0.028-0.026c-16.321-16.929-39.196-27.443-64.527-27.443-0.443 0-0.885 0.004-1.327 0.010l0.067-0.001c-0.618-0.015-1.346-0.023-2.076-0.023-25.517 0-48.579 10.511-65.093 27.44l-0.018 0.019c-16.702 16.288-27.062 39.013-27.062 64.157 0 0.652 0.007 1.301 0.021 1.95l-0.002-0.097c-0.012 0.536-0.018 1.168-0.018 1.802 0 25.514 10.509 48.574 27.434 65.087l0.019 0.018c16.566 16.944 39.654 27.45 65.197 27.45 0.601 0 1.2-0.005 1.799-0.017l-0.090 0.002zM884.644 715.205c0.050 0 0.109 0 0.168 0 76.871 0 139.188-62.317 139.188-139.188 0-0.079 0-0.158 0-0.236v0.013c-0.18-76.58-62.302-138.592-138.908-138.592-38.405 0-73.17 15.586-98.315 40.777l-0.002 0.002c-25.154 24.308-40.771 58.345-40.771 96.031 0 0.627 0.004 1.252 0.013 1.876l-0.001-0.095c-0.012 0.665-0.019 1.449-0.019 2.236 0 37.808 15.614 71.969 40.746 96.386l0.032 0.031c24.325 25.155 58.378 40.772 96.079 40.772 0.629 0 1.258-0.004 1.885-0.013l-0.095 0.001zM745.512 343.438c0.099 0 0.218 0 0.337 0 103.372 0 187.171-83.799 187.171-187.171 0-0.138 0-0.276 0-0.414v0.021c0-0.1 0-0.218 0-0.337 0-103.372-83.799-187.171-187.171-187.171-0.118 0-0.236 0-0.354 0h0.019c-103.089 0.414-186.499 84.079-186.499 187.225 0 0.099 0 0.198 0 0.296v-0.015c0 0.1 0 0.218 0 0.337 0 103.146 83.41 186.813 186.46 187.225h0.039zM448.603 884.963c0.386 0.003 0.843 0.004 1.3 0.004 32.452 0 63.301-6.863 91.176-19.217l-1.438 0.568c28.884-12.586 53.593-29.386 74.625-49.932l-0.047 0.046c20.895-20.685 37.888-45.266 49.806-72.57l0.585-1.503c11.123-26.514 17.584-57.329 17.584-89.654 0-0.487-0.002-0.973-0.004-1.46v0.075c0.009-0.773 0.014-1.685 0.014-2.6 0-31.922-6.447-62.339-18.11-90.020l0.57 1.525c-24.584-56.363-68.647-100.406-123.491-124.37l-1.532-0.596c-26.848-11.786-58.142-18.646-91.038-18.646s-64.19 6.859-92.53 19.226l1.492-0.58c-56.376 24.56-100.439 68.605-124.427 123.437l-0.597 1.531c-11.092 26.154-17.539 56.571-17.539 88.493 0 0.914 0.005 1.827 0.016 2.739l-0.001-0.139c-0.004 0.455-0.005 0.993-0.005 1.531 0 32.269 6.441 63.034 18.109 91.078l-0.579-1.571c12.502 28.807 29.495 53.388 50.371 74.054l0.020 0.019c20.999 20.505 45.728 37.306 73.055 49.271l1.578 0.616c26.448 11.785 57.309 18.648 89.773 18.648 0.445 0 0.89-0.001 1.334-0.004h-0.069z" />
<glyph unicode="&#xe96d;" glyph-name="copy-to-clipboard" horiz-adv-x="939" d="M853.333-0h-128v-85.333h128c47.128 0 85.333 38.205 85.333 85.333v0 128h-85.333zM849.493 640h-81.493v85.333c0 47.128-38.205 85.333-85.333 85.333v0h-42.667v-85.333h42.667v-554.667h-597.333v554.667h42.667v85.333h-38.827c-1.146 0.055-2.489 0.086-3.84 0.086-47.128 0-85.333-38.205-85.333-85.333 0-0.030 0-0.061 0-0.091v0.005-566.187c0.328-41.223 33.822-74.515 75.091-74.515 3.612 0 7.165 0.255 10.641 0.748l-0.399-0.046h85.333v-85.333c0-47.128 38.205-85.333 85.333-85.333v0h118.187v85.333h-118.187v85.333h426.667c3.334-0.531 7.179-0.834 11.094-0.834 41.002 0 74.24 33.238 74.24 74.24 0 0.143 0 0.286-0.001 0.429v-0.022 395.52h81.493v-128h89.173v128c-1.183 47.388-39.879 85.35-87.441 85.35-0.609 0-1.217-0.006-1.823-0.019l0.091 0.001zM256 554.667h128v85.333h-121.6c-50.663 0-91.733-41.070-91.733-91.733v-121.6h85.333zM384 938.667c0.3 0.004 0.655 0.006 1.010 0.006 23.091 0 43.927-9.654 58.693-25.147l0.031-0.033c15.785-15.031 25.601-36.206 25.601-59.674 0-0.171-0.001-0.342-0.002-0.512v0.026h85.333v-128h-341.333v128h85.333c-0.001 0.144-0.001 0.315-0.001 0.486 0 23.468 9.817 44.642 25.568 59.642l0.034 0.032c14.796 15.525 35.632 25.18 58.723 25.18 0.355 0 0.71-0.002 1.064-0.007l-0.054 0.001z" />
<glyph unicode="&#xe96e;" glyph-name="universe" d="M725.333 853.334h-426.667c-119.467 0-213.333-93.867-213.333-213.333v-426.667c0-119.467 93.867-213.333 213.333-213.333h426.667c119.467 0 213.333 93.867 213.333 213.333v426.667c0 119.467-93.867 213.333-213.333 213.333zM853.333 213.334c0-68.267-55.467-128-128-128h-426.667c-72.533 0-128 59.733-128 128v426.667c0 72.533 55.467 128 128 128h426.667c72.533 0 128-55.467 128-128v-426.667zM669.867 512h-140.8c-59.733 0-102.4-42.667-102.4-98.133v-140.8c0-55.467 42.667-98.133 98.133-98.133h140.8c55.467 0 98.133 42.667 98.133 98.133v140.8c4.267 55.467-38.4 98.133-93.867 98.133zM682.667 268.8c0-8.533-8.533-12.8-12.8-12.8h-140.8c-8.533 0-12.8 8.533-12.8 12.8v140.8c0 8.533 8.533 12.8 12.8 12.8h140.8c8.533 0 12.8-4.267 12.8-12.8v-140.8z" />
<glyph unicode="&#xe96f;" glyph-name="domain-group" d="M725.333 853.334h-426.667c-119.467 0-213.333-93.867-213.333-213.333v-426.667c0-119.467 93.867-213.333 213.333-213.333h426.667c119.467 0 213.333 93.867 213.333 213.333v426.667c0 119.467-93.867 213.333-213.333 213.333zM853.333 213.334c0-68.267-55.467-128-128-128h-426.667c-72.533 0-128 59.733-128 128v426.667c0 72.533 55.467 128 128 128h426.667c72.533 0 128-55.467 128-128v-426.667zM618.667 704c-81.067 0-149.333-68.267-149.333-149.333s68.267-149.333 149.333-149.333 149.333 68.267 149.333 149.333-68.267 149.333-149.333 149.333zM618.667 469.334c-46.933 0-85.333 38.4-85.333 85.333s38.4 85.333 85.333 85.333 85.333-38.4 85.333-85.333c0-46.933-38.4-85.333-85.333-85.333zM618.667 384c-59.733 0-106.667-46.933-106.667-106.667s46.933-106.667 106.667-106.667 106.667 46.933 106.667 106.667-46.933 106.667-106.667 106.667zM618.667 234.667c-21.333 0-42.667 21.333-42.667 42.667s21.333 42.667 42.667 42.667 42.667-21.333 42.667-42.667-21.333-42.667-42.667-42.667zM341.333 469.334c-72.533 0-128-55.467-128-128s55.467-128 128-128 128 55.467 128 128c0 72.533-55.467 128-128 128zM341.333 277.334c-34.133 0-64 29.867-64 64s29.867 64 64 64 64-29.867 64-64c0-34.133-29.867-64-64-64z" />
<glyph unicode="&#xe970;" glyph-name="layout-full" horiz-adv-x="1026" d="M85.563 854.104h854.87v-85.486h-854.87v85.486zM940.437-0.77h-854.87v683.899h854.87zM171.053 84.72h683.899v512.923h-683.899z" />
<glyph unicode="&#xe971;" glyph-name="layout-split" d="M85.332 853.335h853.331v-85.33h-853.331v85.33zM469.331-0.001h-383.999v682.667h383.999zM170.669 85.336h213.33v511.998h-213.33zM938.668-0.001h-383.999v682.667h383.999zM640 85.336h213.33v511.998h-213.33z" />
<glyph unicode="&#xe972;" glyph-name="copy-compared-field" d="M853.333 770.371v-85.334h-682.666v85.334h682.666zM853.333 855.706h-682.666c-47.129 0-85.334-38.204-85.334-85.334v0-85.334c0-47.129 38.204-85.334 85.334-85.334v0h682.666c47.129 0 85.334 38.204 85.334 85.334v0 85.334c0 47.129-38.204 85.334-85.334 85.334v0zM670.295 373.999l-158.294 157.866-158.294-157.866 60.586-60.586 55.039 55.468v-153.172h85.334v153.172l55.039-55.468 60.586 60.586zM810.669 130.369h85.334v-85.334h-85.334v85.334zM640 130.369h85.334v-85.334h-85.334v85.334zM469.336 130.369h85.334v-85.334h-85.334v85.334zM298.667 130.369h85.334v-85.334h-85.334v85.334zM128.001 130.369h85.334v-85.334h-85.334v85.334z" />
<glyph unicode="&#xe973;" glyph-name="data-flow" d="M896 853.334h-768c-21.333 0-42.667-21.333-42.667-42.667v-768c0-21.333 21.333-42.667 42.667-42.667h768c21.333 0 42.667 21.333 42.667 42.667v768c0 21.333-21.333 42.667-42.667 42.667zM170.667 597.334h157.867c-21.333-46.933-29.867-110.933-29.867-170.667s8.533-123.733 29.867-170.667h-157.867v341.333zM853.333 85.334h-682.667v85.333h256c89.6 0 128 132.267 128 256s-38.4 256-128 256h-256v85.333h682.667v-682.667zM384 426.667c0 102.4 29.867 157.867 42.667 170.667 12.8-12.8 42.667-68.267 42.667-170.667 0-98.133-29.867-157.867-42.667-170.667-12.8 12.8-42.667 72.533-42.667 170.667zM819.2 426.667l-149.333-196.267c-4.267-12.8-17.067-17.067-29.867-17.067-8.533 0-17.067 4.267-25.6 8.533-17.067 12.8-21.333 42.667-8.533 59.733l106.667 145.067-106.667 145.067c-12.8 17.067-8.533 46.933 8.533 59.733s46.933 8.533 59.733-8.533l145.067-196.267z" />
<glyph unicode="&#xe974;" glyph-name="process_old" d="M840.832 326.219l-60.32-60.32 52.608-52.576h-35.232c-0.256 0-0.576 0-0.896 0-107.712 0-200.992 61.728-246.4 151.712l-26.72 53.6 34.144 68c46.144 91.616 139.424 153.344 247.136 153.344 0.224 0 0.448 0 0.64 0h28.608l-53.888-53.888 60.32-60.32 156.704 156.896-156.544 157.856-60.672-59.744 54.784-55.456h-29.344c-0.32 0-0.704 0-1.088 0-140.864 0-262.848-80.736-322.208-198.464l-6.336-12.832-5.504 10.752c-60.32 119.808-182.336 200.544-323.2 200.544-0.416 0-0.832 0-1.28 0h-103.488v-85.344h103.552c0.288 0 0.608 0 0.928 0 107.712 0 200.992-61.728 246.4-151.712l34.848-69.6-26.112-52.064c-46.144-91.584-139.424-153.312-247.136-153.312-0.352 0-0.672 0-1.024 0h-111.488v-85.344h111.52c0.32 0 0.672 0 1.024 0 139.040 0 259.68 78.72 319.808 194.016 62.016-115.296 182.656-194.016 321.664-194.016 0.416 0 0.8 0 1.216 0h37.856l-55.168-55.168 60.32-60.32 156.896 156.896z" />
<glyph unicode="&#xe975;" glyph-name="indeterminate_check_box" d="M896 853.334h-768c-23.564 0-42.667-19.103-42.667-42.667v0-768c0-23.564 19.103-42.667 42.667-42.667v0h768c23.564 0 42.667 19.103 42.667 42.667v0 768c0 23.564-19.103 42.667-42.667 42.667v0zM725.333 384h-426.667v85.333h426.667z" />
<glyph unicode="&#xe976;" glyph-name="dataset" d="M853.333 810.667h-682.667c-72.533 0-128-59.733-128-128v-512c0-72.533 55.467-128 128-128h682.667c72.533 0 128 55.467 128 128v512c0 68.267-55.467 128-128 128zM896 170.667c0-21.333-21.333-42.667-42.667-42.667h-682.667c-21.333 0-42.667 21.333-42.667 42.667v384h768v-384zM896 640h-768v42.667c0 25.6 21.333 42.667 42.667 42.667h682.667c21.333 0 42.667-17.067 42.667-42.667v-42.667zM512 469.334h85.333v-256h-85.333v256zM682.667 469.334h85.333v-256h-85.333v256zM320 490.667c-59.733 0-106.667-46.933-106.667-106.667v-85.333c0-59.733 46.933-106.667 106.667-106.667s106.667 51.2 106.667 106.667v85.333c0 59.733-46.933 106.667-106.667 106.667zM341.333 298.667c0-12.8-8.533-21.333-21.333-21.333s-21.333 12.8-21.333 21.333v85.333c0 12.8 8.533 21.333 21.333 21.333s21.333-8.533 21.333-21.333v-85.333z" />
</font>
</defs>
</svg>
